<?xml version="1.0" encoding="UTF-8" standalone="no"?>
<!-- Generator: Adobe Illustrator 15.0.2, SVG Export Plug-In . SVG Version: 6.00 Build 0)  -->

<svg
   version="1.1"
   id="Layer_1"
   x="0px"
   y="0px"
   width="100"
   height="100"
   viewBox="-945 -210.002 100 99.999998"
   enable-background="new -945 -210.002 1045 730.002"
   xml:space="preserve"
   xmlns="http://www.w3.org/2000/svg"
   xmlns:svg="http://www.w3.org/2000/svg"><defs
   id="defs150" />
<g
   id="g1"
   transform="translate(0,-0.002)">
	<circle
   fill="#cac5c0"
   cx="-895"
   cy="-160"
   r="50"
   id="circle1" />
</g>
<path
   fill="#0d0f0f"
   d="m -922,-157.574 c 0,-9.787 2.061,-18.813 6.191,-27.072 5.117,-10.236 12.123,-15.355 21.012,-15.355 8.797,0 15.666,4.359 20.605,13.064 4.127,7.186 6.191,15.537 6.191,25.051 0,9.881 -2.064,18.814 -6.191,26.803 -5.031,10.058 -12.035,15.081 -21.011,15.081 -8.531,0 -15.305,-4.307 -20.336,-12.926 -4.308,-7.361 -6.461,-15.576 -6.461,-24.646 z m 11.309,-4.444 c 0,12.926 1.93,22.984 5.795,30.168 2.691,5.025 6.146,7.541 10.367,7.541 10.146,0 15.221,-10.506 15.221,-31.518 0,-9.244 -0.809,-17.059 -2.422,-23.434 -2.785,-10.504 -7.498,-15.76 -14.145,-15.76 -9.879,0 -14.816,10.15 -14.816,30.443 z"
   id="path1" />


















































































































































</svg>
