<?xml version="1.0" encoding="UTF-8" standalone="no"?>
<!-- Generator: Adobe Illustrator 15.0.2, SVG Export Plug-In . SVG Version: 6.00 Build 0)  -->

<svg
   version="1.1"
   id="Layer_1"
   x="0px"
   y="0px"
   width="100"
   height="100"
   viewBox="-945 -210.002 100 99.999998"
   enable-background="new -945 -210.002 1045 730.002"
   xml:space="preserve"
   xmlns="http://www.w3.org/2000/svg"
   xmlns:svg="http://www.w3.org/2000/svg"><defs
   id="defs150" />






































<g
   id="g20"
   transform="translate(0,-105)">
	<circle
   fill="#cac5c0"
   cx="-895"
   cy="-55.001999"
   r="50"
   id="circle20" />
</g>
<path
   fill="#0d0f0f"
   d="m -909.694,-191.367 v 50.439 c 0,5.998 2.567,8.998 7.693,8.998 h 1.305 v 3.42 h -26.866 v -3.42 h 1.727 c 4.931,0 7.4,-3 7.4,-8.998 v -33.08 c 0,-6.08 -2.155,-9.123 -6.467,-9.123 h -2.66 v -3.424 h 1.016 c 5.238,0 9.969,-1.604 14.191,-4.813 z m 9.76,33.328 c 0,-7.857 1.646,-15.082 4.94,-21.668 4.142,-8.193 9.805,-12.293 16.982,-12.293 6.931,0 12.422,3.508 16.476,10.516 3.296,5.748 4.945,12.381 4.945,19.898 0,7.859 -1.648,15.039 -4.945,21.545 -4.141,8.029 -9.757,12.041 -16.853,12.041 -6.842,0 -12.293,-3.465 -16.352,-10.395 -3.464,-5.828 -5.193,-12.376 -5.193,-19.644 z m 9.122,-3.676 c 0,6.68 0.718,12.676 2.156,17.996 2.197,8.195 5.785,12.295 10.771,12.295 8.111,0 12.165,-8.447 12.165,-25.346 0,-20.869 -4.394,-31.301 -13.182,-31.301 -7.941,0 -11.912,8.105 -11.912,24.328 z"
   id="path21" />












































































































</svg>
