<?xml version="1.0" encoding="UTF-8" standalone="no"?>
<!-- Generator: Adobe Illustrator 15.0.2, SVG Export Plug-In . SVG Version: 6.00 Build 0)  -->

<svg
   version="1.1"
   id="Layer_1"
   x="0px"
   y="0px"
   width="188"
   height="100"
   viewBox="-945 -210.002 188 99.999998"
   enable-background="new -945 -210.002 1045 730.002"
   xml:space="preserve"
   xmlns="http://www.w3.org/2000/svg"
   xmlns:svg="http://www.w3.org/2000/svg"><defs
   id="defs150" />
























































































































<path
   fill="#cac5c0"
   d="m -807,-210.00203 h -88 v 0 c -27.613,0 -50,22.385 -50,49.998 0,27.615 22.387,50.002 50,50.002 v 0 h 88 c 27.613,0 50,-22.387 50,-50.002 0,-27.613 -22.387,-49.998 -50,-49.998 z"
   id="path109" />
<path
   fill="#0d0f0f"
   d="m -901.421,-197.00203 v 59.301 c 0,7.096 2.98,10.639 8.957,10.639 h 1.559 v 4.06 h -31.551 v -4.061 h 1.979 c 5.779,0 8.666,-3.545 8.666,-10.641 v -38.898 c 0,-7.178 -2.494,-10.77 -7.475,-10.77 h -3.17 v -3.93 h 1.143 c 6.162,0 11.74,-1.902 16.725,-5.703 h 3.167 z"
   id="path110" />
<path
   fill="#0d0f0f"
   d="m -881.874,-157.75803 c 0,-9.051 1.908,-17.4 5.729,-25.041 4.732,-9.469 11.213,-14.203 19.436,-14.203 8.137,0 14.49,4.029 19.059,12.082 3.818,6.646 5.729,14.373 5.729,23.174 0,9.141 -1.91,17.402 -5.729,24.795 -4.652,9.301 -11.131,13.949 -19.436,13.949 -7.891,0 -14.156,-3.984 -18.809,-11.957 -3.987,-6.811 -5.979,-14.408 -5.979,-22.799 z m 10.461,-4.109 c 0,11.957 1.785,21.262 5.361,27.906 2.488,4.648 5.684,6.975 9.588,6.975 9.385,0 14.08,-9.717 14.08,-29.152 0,-8.553 -0.748,-15.781 -2.24,-21.676 -2.576,-9.719 -6.936,-14.578 -13.084,-14.578 -9.139,0 -13.705,9.387 -13.705,28.158 z"
   id="path111" />
<path
   fill="#0d0f0f"
   d="m -820.54,-157.75803 c 0,-9.051 1.908,-17.4 5.729,-25.041 4.732,-9.469 11.213,-14.203 19.436,-14.203 8.137,0 14.49,4.029 19.059,12.082 3.818,6.646 5.729,14.373 5.729,23.174 0,9.141 -1.91,17.402 -5.729,24.795 -4.652,9.301 -11.131,13.949 -19.436,13.949 -7.891,0 -14.156,-3.984 -18.809,-11.957 -3.987,-6.811 -5.979,-14.408 -5.979,-22.799 z m 10.461,-4.109 c 0,11.957 1.785,21.262 5.361,27.906 2.488,4.648 5.684,6.975 9.588,6.975 9.385,0 14.08,-9.717 14.08,-29.152 0,-8.553 -0.748,-15.781 -2.24,-21.676 -2.576,-9.719 -6.936,-14.578 -13.084,-14.578 -9.139,0 -13.705,9.387 -13.705,28.158 z"
   id="path112" />
























</svg>
