<?xml version="1.0" encoding="UTF-8" standalone="no"?>
<!-- Generator: Adobe Illustrator 15.0.2, SVG Export Plug-In . SVG Version: 6.00 Build 0)  -->

<svg
   version="1.1"
   id="Layer_1"
   x="0px"
   y="0px"
   width="508"
   height="100"
   viewBox="-945 -210.002 508 99.999998"
   enable-background="new -945 -210.002 1045 730.002"
   xml:space="preserve"
   xmlns="http://www.w3.org/2000/svg"
   xmlns:svg="http://www.w3.org/2000/svg"><defs
   id="defs150" />




























































































































<path
   fill="#cac5c0"
   d="m -487,-210.00203 h -408 -0.002 c -27.613,0 -49.998,22.385 -49.998,49.998 0,27.615 22.385,50.002 49.998,50.002 h 0.002 408 c 27.613,0 50,-22.387 50,-50.002 0,-27.613 -22.387,-49.998 -50,-49.998 z"
   id="path113" />
<g
   id="g114"
   transform="translate(0,-630.00203)">
	<path
   fill="#0d0f0f"
   d="m -860.859,505.529 v -2.619 c 6.889,-0.75 10.33,-3.271 10.33,-7.564 0,-2.543 -0.973,-3.889 -2.918,-4.041 l -0.973,-0.074 c -2.797,-0.197 -4.195,-1.572 -4.195,-4.117 0,-1.445 0.438,-2.584 1.311,-3.406 0.875,-0.82 2.035,-1.234 3.482,-1.234 2.445,0 4.367,1.225 5.766,3.67 1.197,2.047 1.795,4.393 1.795,7.037 0,4.143 -1.447,7.287 -4.342,9.432 -2.547,1.842 -5.965,2.817 -10.256,2.916 z"
   id="path114" />
</g>
<g
   id="g115"
   transform="translate(0,-630.00203)">
	<path
   fill="#0d0f0f"
   d="m -658.385,505.529 v -2.619 c 6.887,-0.75 10.33,-3.271 10.33,-7.564 0,-2.543 -0.971,-3.889 -2.92,-4.041 l -0.971,-0.074 c -2.795,-0.197 -4.193,-1.572 -4.193,-4.117 0,-1.445 0.438,-2.584 1.309,-3.406 0.875,-0.82 2.035,-1.234 3.482,-1.234 2.447,0 4.369,1.225 5.768,3.67 1.195,2.047 1.793,4.393 1.793,7.037 0,4.143 -1.447,7.287 -4.34,9.432 -2.547,1.842 -5.965,2.817 -10.258,2.916 z"
   id="path115" />
</g>
<path
   fill="#0d0f0f"
   d="m -514.471,-159.63503 c 0,-9.543 2.025,-18.344 6.08,-26.396 5.021,-9.98 11.9,-14.971 20.625,-14.971 8.633,0 15.377,4.246 20.225,12.734 4.051,7.006 6.08,15.15 6.08,24.426 0,9.637 -2.029,18.344 -6.08,26.137 -4.938,9.803 -11.813,14.703 -20.625,14.703 -8.373,0 -15.023,-4.199 -19.961,-12.604 -4.228,-7.177 -6.344,-15.185 -6.344,-24.029 z m 11.102,-4.334 c 0,12.604 1.895,22.41 5.689,29.414 2.641,4.9 6.033,7.354 10.176,7.354 9.959,0 14.939,-10.244 14.939,-30.729 0,-9.016 -0.791,-16.635 -2.375,-22.85 -2.734,-10.242 -7.361,-15.365 -13.887,-15.365 -9.697,0 -14.543,9.896 -14.543,29.68 z"
   id="path116" />
<path
   fill="#0d0f0f"
   d="m -575.471,-159.63503 c 0,-9.543 2.023,-18.344 6.078,-26.396 5.023,-9.98 11.902,-14.971 20.625,-14.971 8.633,0 15.379,4.246 20.227,12.734 4.051,7.006 6.078,15.15 6.078,24.426 0,9.637 -2.027,18.344 -6.078,26.137 -4.938,9.803 -11.813,14.703 -20.625,14.703 -8.375,0 -15.023,-4.199 -19.961,-12.604 -4.23,-7.177 -6.344,-15.185 -6.344,-24.029 z m 11.102,-4.334 c 0,12.604 1.895,22.41 5.688,29.414 2.641,4.9 6.035,7.354 10.176,7.354 9.961,0 14.941,-10.244 14.941,-30.729 0,-9.016 -0.793,-16.635 -2.375,-22.85 -2.734,-10.242 -7.363,-15.365 -13.887,-15.365 -9.699,0 -14.543,9.896 -14.543,29.68 z"
   id="path117" />
<path
   fill="#0d0f0f"
   d="m -636.787,-159.63503 c 0,-9.543 2.027,-18.344 6.082,-26.396 5.02,-9.98 11.898,-14.971 20.625,-14.971 8.633,0 15.375,4.246 20.223,12.734 4.051,7.006 6.082,15.15 6.082,24.426 0,9.637 -2.031,18.344 -6.082,26.137 -4.938,9.803 -11.813,14.703 -20.625,14.703 -8.371,0 -15.023,-4.199 -19.961,-12.604 -4.227,-7.177 -6.344,-15.185 -6.344,-24.029 z m 11.101,-4.334 c 0,12.604 1.895,22.41 5.691,29.414 2.641,4.9 6.031,7.354 10.176,7.354 9.957,0 14.938,-10.244 14.938,-30.729 0,-9.016 -0.789,-16.635 -2.375,-22.85 -2.734,-10.242 -7.359,-15.365 -13.887,-15.365 -9.695,0 -14.543,9.896 -14.543,29.68 z"
   id="path118" />
<path
   fill="#0d0f0f"
   d="m -718.139,-159.63503 c 0,-9.543 2.027,-18.344 6.082,-26.396 5.02,-9.98 11.898,-14.971 20.625,-14.971 8.633,0 15.375,4.246 20.223,12.734 4.051,7.006 6.082,15.15 6.082,24.426 0,9.637 -2.031,18.344 -6.082,26.137 -4.937,9.803 -11.812,14.703 -20.625,14.703 -8.371,0 -15.023,-4.199 -19.961,-12.604 -4.226,-7.177 -6.344,-15.185 -6.344,-24.029 z m 11.102,-4.334 c 0,12.604 1.895,22.41 5.691,29.414 2.641,4.9 6.031,7.354 10.176,7.354 9.957,0 14.938,-10.244 14.938,-30.729 0,-9.016 -0.789,-16.635 -2.375,-22.85 -2.734,-10.242 -7.359,-15.365 -13.887,-15.365 -9.695,0 -14.543,9.896 -14.543,29.68 z"
   id="path119" />
<path
   fill="#0d0f0f"
   d="m -779.139,-159.63503 c 0,-9.543 2.025,-18.344 6.08,-26.396 5.021,-9.98 11.9,-14.971 20.625,-14.971 8.633,0 15.377,4.246 20.225,12.734 4.051,7.006 6.078,15.15 6.078,24.426 0,9.637 -2.027,18.344 -6.078,26.137 -4.937,9.803 -11.812,14.703 -20.625,14.703 -8.373,0 -15.023,-4.199 -19.961,-12.604 -4.228,-7.177 -6.344,-15.185 -6.344,-24.029 z m 11.102,-4.334 c 0,12.604 1.895,22.41 5.689,29.414 2.641,4.9 6.033,7.354 10.176,7.354 9.959,0 14.939,-10.244 14.939,-30.729 0,-9.016 -0.791,-16.635 -2.375,-22.85 -2.734,-10.242 -7.361,-15.365 -13.887,-15.365 -9.697,0 -14.543,9.896 -14.543,29.68 z"
   id="path120" />
<path
   fill="#0d0f0f"
   d="m -840.453,-159.63503 c 0,-9.543 2.025,-18.344 6.08,-26.396 5.021,-9.98 11.9,-14.971 20.625,-14.971 8.633,0 15.377,4.246 20.225,12.734 4.051,7.006 6.08,15.15 6.08,24.426 0,9.637 -2.029,18.344 -6.08,26.137 -4.938,9.803 -11.813,14.703 -20.625,14.703 -8.373,0 -15.023,-4.199 -19.961,-12.604 -4.229,-7.177 -6.344,-15.185 -6.344,-24.029 z m 11.101,-4.334 c 0,12.604 1.895,22.41 5.689,29.414 2.641,4.9 6.033,7.354 10.176,7.354 9.959,0 14.939,-10.244 14.939,-30.729 0,-9.016 -0.791,-16.635 -2.375,-22.85 -2.734,-10.242 -7.361,-15.365 -13.887,-15.365 -9.697,0 -14.543,9.896 -14.543,29.68 z"
   id="path121" />
<path
   fill="#0d0f0f"
   d="m -883.207,-201.00003 v 62.506 c 0,7.479 3.225,11.215 9.686,11.215 h 1.684 v 4.279 h -34.109 v -4.279 h 2.141 c 6.246,0 9.367,-3.736 9.367,-11.215 v -41.004 c 0,-7.563 -2.695,-11.352 -8.08,-11.352 h -3.428 v -4.141 h 1.236 c 6.66,0 12.691,-2.006 18.08,-6.012 h 3.423 z"
   id="path122" />














</svg>
