<?xml version="1.0" encoding="UTF-8" standalone="no"?>
<!-- Generator: Adobe Illustrator 15.0.2, SVG Export Plug-In . SVG Version: 6.00 Build 0)  -->

<svg
   version="1.1"
   id="Layer_1"
   x="0px"
   y="0px"
   width="100"
   height="100"
   viewBox="-945 -210.002 100 99.999998"
   enable-background="new -945 -210.002 1045 730.002"
   xml:space="preserve"
   xmlns="http://www.w3.org/2000/svg"
   xmlns:svg="http://www.w3.org/2000/svg"><defs
   id="defs150" />




































<g
   id="g19"
   transform="translate(-105,-105)">
	<circle
   fill="#cac5c0"
   cx="-790"
   cy="-55.001999"
   r="50"
   id="circle19" />
</g>
<path
   fill="#0d0f0f"
   d="m -905.169,-191.68 v 50.84 c 0,6.049 2.516,9.07 7.536,9.07 h 1.279 v 3.449 h -27.081 v -3.449 h 1.788 c 5.109,0 7.667,-3.021 7.667,-9.07 v -33.34 c 0,-6.133 -2.173,-9.195 -6.518,-9.195 h -2.683 v -3.449 h 1.024 c 5.28,0 10.047,-1.617 14.304,-4.855 z m 32.449,0 v 50.84 c 0,6.049 2.511,9.07 7.537,9.07 h 1.278 v 3.449 h -27.086 v -3.449 h 1.788 c 5.115,0 7.667,-3.021 7.667,-9.07 v -33.34 c 0,-6.133 -2.173,-9.195 -6.513,-9.195 h -2.682 v -3.449 h 1.019 c 5.28,0 10.047,-1.617 14.31,-4.855 z"
   id="path20" />














































































































</svg>
