<?xml version="1.0" encoding="UTF-8" standalone="no"?>
<!-- Generator: Adobe Illustrator 15.0.2, SVG Export Plug-In . SVG Version: 6.00 Build 0)  -->

<svg
   version="1.1"
   id="Layer_1"
   x="0px"
   y="0px"
   width="100"
   height="100"
   viewBox="-945 -210.002 100 99.999998"
   enable-background="new -945 -210.002 1045 730.002"
   xml:space="preserve"
   xmlns="http://www.w3.org/2000/svg"
   xmlns:svg="http://www.w3.org/2000/svg"><defs
   id="defs150" />


































<g
   id="g18"
   transform="translate(-210,-105)">
	<circle
   fill="#cac5c0"
   cx="-685"
   cy="-55.001999"
   r="50"
   id="circle18" />
</g>
<path
   fill="#0d0f0f"
   d="m -909.37,-190.785 v 49.18 c 0,5.875 2.428,8.816 7.277,8.816 h 1.278 v 3.445 H -927 v -3.445 h 1.533 c 4.938,0 7.406,-2.941 7.406,-8.816 v -32.32 c 0,-5.955 -2.043,-8.939 -6.128,-8.939 h -2.682 v -3.322 h 1.019 c 5.109,0 9.709,-1.531 13.795,-4.598 z m 50.965,46.367 -4.471,15.203 h -37.429 v -3.32 c 1.793,-2.043 5.749,-6.133 11.882,-12.266 3.659,-3.66 7.324,-7.578 10.988,-11.748 1.788,-2.049 3.191,-3.748 4.215,-5.115 2.126,-3.232 3.191,-6.465 3.191,-9.703 0,-3.238 -0.981,-6.092 -2.938,-8.561 -1.959,-2.471 -4.559,-3.705 -7.791,-3.705 -6.731,0 -12.012,4.598 -15.843,13.799 l -3.321,-1.279 c 4.601,-12.775 11.752,-19.164 21.461,-19.164 4.767,0 8.857,1.621 12.262,4.855 3.404,3.238 5.109,7.281 5.109,12.137 0,6.215 -3.534,12.262 -10.598,18.141 l -7.282,5.873 c -4.688,3.92 -8.561,7.625 -11.628,11.111 -0.254,0.262 -0.681,0.729 -1.273,1.41 h 19.544 c 2.979,0 5.192,-0.557 6.643,-1.664 1.445,-1.102 2.766,-3.107 3.956,-6.004 z"
   id="path19" />
















































































































</svg>
