<?xml version="1.0" encoding="UTF-8" standalone="no"?>
<!-- Generator: Adobe Illustrator 15.0.2, SVG Export Plug-In . SVG Version: 6.00 Build 0)  -->

<svg
   version="1.1"
   id="Layer_1"
   x="0px"
   y="0px"
   width="100"
   height="100"
   viewBox="-945 -210.002 100 99.999998"
   enable-background="new -945 -210.002 1045 730.002"
   xml:space="preserve"
   xmlns="http://www.w3.org/2000/svg"
   xmlns:svg="http://www.w3.org/2000/svg"><defs
   id="defs150" />
































<g
   id="g17"
   transform="translate(-315,-105)">
	<circle
   fill="#cac5c0"
   cx="-580"
   cy="-55.001999"
   r="50"
   id="circle17" />
</g>
<path
   fill="#0d0f0f"
   d="m -907.033,-190.211 v 48.543 c 0,5.707 2.428,8.555 7.282,8.555 h 1.149 v 3.322 h -25.802 v -3.322 h 1.663 c 4.938,0 7.406,-2.848 7.406,-8.555 v -31.811 c 0,-5.873 -2.089,-8.814 -6.258,-8.814 h -2.558 v -3.316 h 1.024 c 5.021,0 9.538,-1.535 13.54,-4.602 z m 21.717,32.191 -1.533,-2.813 1.153,-0.641 c 3.831,-2.379 7.387,-4.785 10.666,-7.215 3.274,-2.426 4.917,-5.17 4.917,-8.238 0,-2.129 -0.811,-3.898 -2.427,-5.301 -1.617,-1.408 -3.41,-2.109 -5.364,-2.109 -4.943,0 -10.136,2.982 -15.588,8.945 l -2.553,-1.918 c 5.619,-8.516 12.517,-12.777 20.692,-12.777 3.576,0 6.602,0.895 9.07,2.684 2.896,1.965 4.346,4.645 4.346,8.051 0,2.387 -1.024,4.725 -3.067,7.021 -1.195,1.279 -3.238,3.025 -6.133,5.24 l -1.149,1.023 c 0.51,-0.082 1.149,-0.129 1.918,-0.129 3.748,0 6.81,1.43 9.195,4.277 2.386,2.852 3.576,6.113 3.576,9.771 0,6.475 -2.724,11.84 -8.177,16.096 -4.938,4.086 -10.687,6.135 -17.24,6.135 -6.051,0 -10.775,-1.279 -14.18,-3.836 l 1.788,-2.553 c 4.002,1.871 7.661,2.813 10.982,2.813 4.771,0 9.029,-1.574 12.776,-4.73 3.748,-3.148 5.619,-7.068 5.619,-11.752 0,-3.15 -0.936,-5.83 -2.807,-8.045 -1.877,-2.215 -4.346,-3.322 -7.412,-3.322 -2.722,10e-4 -5.747,1.109 -9.068,3.323 z"
   id="path18" />


















































































































</svg>
