<?xml version="1.0" encoding="UTF-8" standalone="no"?>
<!-- Generator: Adobe Illustrator 15.0.2, SVG Export Plug-In . SVG Version: 6.00 Build 0)  -->

<svg
   version="1.1"
   id="Layer_1"
   x="0px"
   y="0px"
   width="100"
   height="100"
   viewBox="-945 -210.002 100 99.999998"
   enable-background="new -945 -210.002 1045 730.002"
   xml:space="preserve"
   xmlns="http://www.w3.org/2000/svg"
   xmlns:svg="http://www.w3.org/2000/svg"><defs
   id="defs150" />






























<g
   id="g16"
   transform="translate(-420,-105)">
	<circle
   fill="#cac5c0"
   cx="-475"
   cy="-55.001999"
   r="50"
   id="circle16" />
</g>
<path
   fill="#0d0f0f"
   d="m -908.692,-190.529 v 49.053 c 0,5.789 2.427,8.684 7.276,8.684 h 1.154 v 3.322 h -26.062 v -3.322 h 1.663 c 4.938,0 7.407,-2.895 7.407,-8.684 v -32.191 c 0,-5.879 -2.09,-8.816 -6.259,-8.816 h -2.557 v -3.32 h 1.023 c 5.021,0 9.579,-1.574 13.665,-4.725 z m 43.047,43.687 v 5.109 c 0,5.707 1.996,8.561 6.003,8.561 h 1.658 v 3.316 h -24.398 v -3.316 h 1.918 c 4.003,0 6.004,-2.813 6.004,-8.43 v -5.24 h -24.528 v -5.109 l 25.932,-37.814 h 7.412 v 38.578 h 0.639 c 2.47,0 4.299,-1.953 5.489,-5.873 h 3.066 l -1.533,10.219 z m -6.773,-5.109 v -32.189 l -21.716,32.189 z"
   id="path17" />




















































































































</svg>
