<?xml version="1.0" encoding="UTF-8" standalone="no"?>
<!-- Generator: Adobe Illustrator 15.0.2, SVG Export Plug-In . SVG Version: 6.00 Build 0)  -->

<svg
   version="1.1"
   id="Layer_1"
   x="0px"
   y="0px"
   width="100"
   height="100"
   viewBox="-945 -210.002 100 99.999998"
   enable-background="new -945 -210.002 1045 730.002"
   xml:space="preserve"
   xmlns="http://www.w3.org/2000/svg"
   xmlns:svg="http://www.w3.org/2000/svg"><defs
   id="defs150" />




























<g
   id="g15"
   transform="translate(-525,-105.002)">
	<path
   fill="#cac5c0"
   d="M -320,-55.002 C -320,-27.387 -342.387,-5 -370.002,-5 -397.615,-5 -420,-27.387 -420,-55.002 c 0,-27.613 22.385,-49.998 49.998,-49.998 27.615,0 50.002,22.385 50.002,49.998 z"
   id="path15" />
</g>
<path
   fill="#0d0f0f"
   d="m -910.33,-191.873 v 50.84 c 0,6.045 2.516,9.07 7.537,9.07 h 1.277 v 3.445 h -27.078 v -3.445 h 1.787 c 5.109,0 7.666,-3.025 7.666,-9.07 v -33.344 c 0,-6.129 -2.172,-9.195 -6.518,-9.195 h -2.682 v -3.449 h 1.023 c 5.281,0 10.047,-1.617 14.305,-4.852 z m 17.885,1.273 h 23.121 c 2.984,0 4.771,-0.336 5.369,-1.02 h 3.322 l -1.918,8.688 h -28.229 l -2.682,12.516 c 3.998,-1.617 7.578,-2.428 10.729,-2.428 6.133,0 11.305,2.049 15.52,6.135 4.215,4.084 6.32,9.193 6.32,15.328 0,7.152 -2.723,12.898 -8.17,17.246 -5.115,4 -11.291,6.004 -18.525,6.004 -4.258,0 -8.43,-0.641 -12.516,-1.918 l 1.273,-3.191 c 3.404,0.934 6.43,1.402 9.07,1.402 5.281,0 9.902,-1.742 13.861,-5.234 3.961,-3.492 5.936,-7.84 5.936,-13.031 0,-4.512 -1.465,-8.219 -4.402,-11.113 -2.941,-2.895 -6.621,-4.344 -11.051,-4.344 -4.172,0 -8.045,1.449 -11.625,4.344 l -2.168,-0.383 z"
   id="path16" />






















































































































</svg>
