<?xml version="1.0" encoding="UTF-8" standalone="no"?>
<!-- Generator: Adobe Illustrator 15.0.2, SVG Export Plug-In . SVG Version: 6.00 Build 0)  -->

<svg
   version="1.1"
   id="Layer_1"
   x="0px"
   y="0px"
   width="100"
   height="100"
   viewBox="-945 -210.002 100 99.999998"
   enable-background="new -945 -210.002 1045 730.002"
   xml:space="preserve"
   xmlns="http://www.w3.org/2000/svg"
   xmlns:svg="http://www.w3.org/2000/svg"><defs
   id="defs150" />


























<g
   id="g14"
   transform="translate(-630,-105)">
	<circle
   fill="#cac5c0"
   cx="-265"
   cy="-55.001999"
   r="50"
   id="circle14" />
</g>
<path
   fill="#0d0f0f"
   d="m -910.691,-191.678 v 50.838 c 0,6.047 2.516,9.07 7.537,9.07 h 1.279 v 3.447 h -27.082 v -3.447 h 1.789 c 5.109,0 7.668,-3.023 7.668,-9.07 v -33.344 c 0,-6.127 -2.174,-9.193 -6.52,-9.193 h -2.682 v -3.451 h 1.023 c 5.281,0 10.049,-1.617 14.305,-4.85 z m 20.058,27.459 c 4.684,-4.422 9.408,-6.643 14.18,-6.643 5.109,0 9.236,2.049 12.391,6.135 2.895,3.746 4.34,8.305 4.34,13.668 0,5.791 -1.703,10.859 -5.109,15.199 -3.746,4.855 -8.43,7.281 -14.049,7.281 -6.643,0 -12.006,-2.895 -16.098,-8.684 -3.576,-5.109 -5.365,-11.156 -5.365,-18.141 0,-7.49 2.043,-14.371 6.135,-20.631 4.084,-6.258 9.58,-10.707 16.477,-13.348 3.83,-1.451 7.922,-2.174 12.262,-2.174 v 3.322 c -9.193,0.428 -16.051,4.092 -20.563,10.988 -2.304,3.579 -3.837,7.919 -4.601,13.028 z m -0.64,6.264 c -0.082,1.273 -0.129,2.553 -0.129,3.83 0,4.938 0.852,9.496 2.559,13.672 2.213,5.445 5.445,8.17 9.707,8.17 3.66,0 6.43,-1.871 8.301,-5.619 1.363,-2.895 2.043,-6.43 2.043,-10.604 0,-4.34 -0.633,-8.088 -1.912,-11.236 -1.877,-4.262 -4.729,-6.389 -8.561,-6.389 -4.684,0 -8.686,2.725 -12.008,8.176 z"
   id="path14" />
























































































































</svg>
