<?xml version="1.0" encoding="UTF-8" standalone="no"?>
<!-- Generator: Adobe Illustrator 15.0.2, SVG Export Plug-In . SVG Version: 6.00 Build 0)  -->

<svg
   version="1.1"
   id="Layer_1"
   x="0px"
   y="0px"
   width="100"
   height="100"
   viewBox="-945 -210.002 100 99.999998"
   enable-background="new -945 -210.002 1045 730.002"
   xml:space="preserve"
   xmlns="http://www.w3.org/2000/svg"
   xmlns:svg="http://www.w3.org/2000/svg"><defs
   id="defs150" />
























<g
   id="g13"
   transform="translate(-735,-105)">
	<circle
   fill="#cac5c0"
   cx="-160"
   cy="-55.001999"
   r="50"
   id="circle13" />
</g>
<path
   fill="#0d0f0f"
   d="m -911.289,-190.848 v 49.307 c 0,5.879 2.43,8.814 7.285,8.814 h 1.148 v 3.322 h -26.188 v -3.322 h 1.789 c 4.938,0 7.41,-2.936 7.41,-8.814 v -32.318 c 0,-5.957 -2.129,-8.941 -6.387,-8.941 h -2.559 v -3.32 h 1.023 c 5.109,0 9.711,-1.576 13.797,-4.727 z m 32.707,61.825 h -8.945 v -1.02 c 0,-5.707 1.789,-12.902 5.363,-21.586 5.453,-12.949 10.48,-22.912 15.074,-29.893 l 0.516,-0.895 h -20.953 c -3.066,0 -5.387,0.639 -6.961,1.912 -1.574,1.279 -2.793,3.41 -3.645,6.389 h -3.445 l 3.832,-16.861 h 2.301 c 1.273,0.598 3.578,0.895 6.898,0.895 h 27.59 v 4.855 c -1.02,1.449 -2.297,3.746 -3.832,6.896 -2.984,5.795 -5.707,12.521 -8.176,20.182 -3.664,11.415 -5.535,21.126 -5.617,29.126 z"
   id="path13" />


























































































































</svg>
