<?xml version="1.0" encoding="UTF-8" standalone="no"?>
<!-- Generator: Adobe Illustrator 15.0.2, SVG Export Plug-In . SVG Version: 6.00 Build 0)  -->

<svg
   version="1.1"
   id="Layer_1"
   x="0px"
   y="0px"
   width="100"
   height="100"
   viewBox="-945 -210.002 100 99.999998"
   enable-background="new -945 -210.002 1045 730.002"
   xml:space="preserve"
   xmlns="http://www.w3.org/2000/svg"
   xmlns:svg="http://www.w3.org/2000/svg"><defs
   id="defs150" />




















<g
   id="g11"
   transform="translate(-945,-105)">
	<circle
   fill="#cac5c0"
   cx="50"
   cy="-55.001999"
   r="50"
   id="circle11" />
</g>
<path
   fill="#0d0f0f"
   d="m -907.838,-191.426 v 50.205 c 0,5.962 2.51,8.939 7.537,8.939 h 1.277 v 3.451 h -26.824 v -3.451 h 1.787 c 5.027,0 7.537,-2.978 7.537,-8.939 v -32.959 c 0,-6.045 -2.131,-9.07 -6.389,-9.07 h -2.682 v -3.446 h 1.023 c 5.193,0 9.918,-1.575 14.18,-4.729 z m 40.75,35.771 c -4.684,4.429 -9.365,6.643 -14.049,6.643 -5.109,0 -9.242,-2.089 -12.393,-6.263 -2.812,-3.659 -4.216,-8.13 -4.216,-13.41 0,-5.708 1.658,-10.817 4.979,-15.329 3.746,-4.854 8.39,-7.281 13.925,-7.281 6.728,0 12.049,2.895 15.967,8.686 3.66,5.197 5.494,11.284 5.494,18.265 0,10.053 -3.3,18.504 -9.899,25.359 -6.602,6.855 -14.881,10.327 -24.846,10.41 v -3.321 c 3.066,-0.171 5.494,-0.515 7.281,-1.023 10.138,-3.068 16.052,-10.646 17.757,-22.736 z m 0.641,-6.264 c 0.082,-1.356 0.129,-2.635 0.129,-3.83 0,-4.938 -0.852,-9.45 -2.557,-13.54 -2.299,-5.364 -5.535,-8.047 -9.711,-8.047 -3.658,0 -6.346,1.83 -8.045,5.494 -1.451,2.979 -2.174,6.472 -2.174,10.474 0,4.34 0.682,8.093 2.043,11.237 1.789,4.174 4.602,6.264 8.432,6.264 4.6,0 8.56,-2.682 11.883,-8.052 z"
   id="path11" />






























































































































</svg>
