<?xml version="1.0" encoding="UTF-8" standalone="no"?>
<!-- Generator: Adobe Illustrator 15.0.2, SVG Export Plug-In . SVG Version: 6.00 Build 0)  -->

<svg
   version="1.1"
   id="Layer_1"
   x="0px"
   y="0px"
   width="100"
   height="100"
   viewBox="-945 -210.002 100 99.999998"
   enable-background="new -945 -210.002 1045 730.002"
   xml:space="preserve"
   xmlns="http://www.w3.org/2000/svg"
   xmlns:svg="http://www.w3.org/2000/svg"><defs
   id="defs150" />




<g
   id="g3"
   transform="translate(-210)">
	<circle
   fill="#cac5c0"
   cx="-685"
   cy="-160.002"
   r="50"
   id="circle3" />
</g>
<path
   fill="#0d0f0f"
   d="m -867.558,-139.897 -5.896,19.898 h -48.991 v -4.254 c 2.38,-2.652 7.595,-8.001 15.646,-16.053 4.849,-4.852 9.649,-9.972 14.407,-15.371 2.378,-2.651 4.21,-4.942 5.487,-6.862 2.836,-4.114 4.255,-8.32 4.255,-12.624 0,-4.204 -1.301,-7.912 -3.908,-11.112 -2.607,-3.204 -5.97,-4.808 -10.09,-4.808 -8.871,0 -15.823,5.998 -20.854,17.98 l -4.395,-1.647 c 5.947,-16.829 15.321,-25.249 28.131,-25.249 6.313,0 11.687,2.149 16.124,6.448 4.439,4.3 6.656,9.604 6.656,15.92 0,8.052 -4.617,15.918 -13.858,23.601 l -9.604,7.956 c -6.131,5.127 -11.212,9.929 -15.231,14.412 -0.28,0.273 -0.826,0.916 -1.647,1.921 h 25.521 c 3.932,0 6.907,-0.776 8.918,-2.335 1.735,-1.372 3.434,-3.98 5.08,-7.821 z"
   id="path3" />














































































































































</svg>
