<?xml version="1.0" encoding="UTF-8" standalone="no"?>
<!-- Generator: Adobe Illustrator 15.0.2, SVG Export Plug-In . SVG Version: 6.00 Build 0)  -->

<svg
   version="1.1"
   id="Layer_1"
   x="0px"
   y="0px"
   width="100"
   height="100"
   viewBox="-945 -210.002 100 99.999998"
   enable-background="new -945 -210.002 1045 730.002"
   xml:space="preserve"
   xmlns="http://www.w3.org/2000/svg"
   xmlns:svg="http://www.w3.org/2000/svg"><defs
   id="defs150" />








































<g
   id="g21"
   transform="translate(0,-210)">
	<circle
   fill="#cac5c0"
   cx="-895"
   cy="49.998001"
   r="50"
   id="circle21" />
</g>
<path
   fill="#0d0f0f"
   d="m -891.756,-146.734 -4.471,14.945 h -36.791 v -3.068 c 1.789,-2.041 5.75,-6.086 11.883,-12.131 3.576,-3.66 7.152,-7.496 10.729,-11.498 1.871,-2.042 3.238,-3.789 4.09,-5.24 2.209,-3.066 3.316,-6.258 3.316,-9.578 0,-3.066 -0.998,-5.813 -2.998,-8.238 -2.002,-2.428 -4.539,-3.639 -7.6,-3.639 -6.643,0 -11.84,4.512 -15.588,13.541 l -3.447,-1.279 c 4.512,-12.689 11.582,-19.033 21.203,-19.033 4.771,0 8.836,1.615 12.199,4.854 3.367,3.238 5.047,7.24 5.047,12.006 0,6.051 -3.535,11.965 -10.604,17.756 l -7.152,6.004 c -4.6,3.92 -8.389,7.537 -11.367,10.857 -0.256,0.172 -0.682,0.682 -1.279,1.535 h 19.164 c 2.979,0 5.234,-0.642 6.768,-1.918 1.279,-1.021 2.557,-2.98 3.83,-5.875 h 3.068 z m -0.51,-13.414 c 0,-7.408 1.533,-14.264 4.6,-20.563 4.002,-7.834 9.408,-11.754 16.223,-11.754 6.555,0 11.793,3.363 15.713,10.09 3.061,5.453 4.594,11.752 4.594,18.904 0,7.495 -1.533,14.311 -4.594,20.444 -4.008,7.659 -9.373,11.491 -16.098,11.491 -6.471,0 -11.67,-3.274 -15.584,-9.836 -3.238,-5.534 -4.854,-11.792 -4.854,-18.776 z m 8.686,-3.448 c 0,6.389 0.68,12.096 2.043,17.116 2.041,7.84 5.451,11.754 10.219,11.754 7.748,0 11.627,-8.047 11.627,-24.146 0,-19.928 -4.217,-29.891 -12.646,-29.891 -7.496,0 -11.242,7.748 -11.242,23.248 z"
   id="path22" />










































































































</svg>
