<?xml version="1.0" encoding="UTF-8" standalone="no"?>
<!-- Generator: Adobe Illustrator 15.0.2, SVG Export Plug-In . SVG Version: 6.00 Build 0)  -->

<svg
   version="1.1"
   id="Layer_1"
   x="0px"
   y="0px"
   width="100"
   height="99.999023"
   viewBox="-945 -210.002 100 99.999021"
   enable-background="new -945 -210.002 1045 730.002"
   xml:space="preserve"
   xmlns="http://www.w3.org/2000/svg"
   xmlns:svg="http://www.w3.org/2000/svg"><defs
   id="defs150" />


























































































<g
   id="g80"
   transform="translate(-210,-420.003)">
	<path
   fill="#bab1ab"
   d="m -649.651,224.637 c 9.052,9.051 14.651,21.551 14.651,35.36 0,27.616 -22.386,50.003 -50.001,50.003 -13.806,0 -26.305,-5.596 -35.354,-14.646"
   id="path79" />
	<path
   fill="#cac5c0"
   d="M -720.354,295.354 C -729.403,286.307 -735,273.805 -735,259.998 c 0,-27.613 22.386,-49.997 49.999,-49.997 13.804,0 26.302,5.593 35.35,14.637"
   id="path80" />
</g>
<path
   fill="#0d0f0f"
   d="m -901.354,-168.412 -2.866,9.677 h -23.821 v -2.068 c 1.157,-1.29 3.692,-3.891 7.607,-7.805 2.357,-2.359 4.692,-4.851 7.005,-7.476 1.157,-1.288 2.048,-2.401 2.667,-3.336 1.379,-1.999 2.07,-4.046 2.07,-6.138 0,-2.045 -0.633,-3.848 -1.901,-5.402 -1.267,-1.561 -2.903,-2.339 -4.905,-2.339 -4.313,0 -7.694,2.916 -10.14,8.743 l -2.137,-0.803 c 2.891,-8.183 7.448,-12.274 13.678,-12.274 3.069,0 5.682,1.044 7.839,3.134 2.159,2.092 3.236,4.67 3.236,7.741 0,3.915 -2.245,7.737 -6.738,11.476 l -4.668,3.868 c -2.981,2.492 -5.453,4.827 -7.406,7.005 -0.136,0.137 -0.402,0.446 -0.802,0.936 h 12.41 c 1.912,0 3.359,-0.377 4.335,-1.133 0.845,-0.67 1.67,-1.937 2.47,-3.806 z"
   id="path81" />
<path
   fill="#0d0f0f"
   d="m -855.38,-144.013 c 0,2.701 -0.982,4.544 -2.947,5.525 -0.574,0.287 -2.374,0.678 -5.404,1.166 -1.963,0.33 -2.946,1.086 -2.946,2.271 v 4.973 c 0,0.209 0.063,0.842 0.184,1.905 l 0.185,1.966 c 0,0.613 -0.144,1.617 -0.431,3.008 -0.777,0.163 -1.678,0.348 -2.701,0.555 -0.328,-1.23 -0.491,-2.069 -0.491,-2.52 0,-0.203 0.05,-0.512 0.153,-0.921 0.102,-0.408 0.154,-0.716 0.154,-0.922 0,-0.284 -0.253,-1.083 -0.762,-2.394 h -0.953 c -0.126,0.205 -0.167,0.471 -0.127,0.797 0.164,0.697 0.225,1.289 0.185,1.781 -0.697,0.491 -1.657,1.146 -2.885,1.965 -0.289,-0.082 -0.389,-0.123 -0.308,-0.123 v -4.359 c -0.081,-0.203 -0.285,-0.285 -0.614,-0.246 h -0.737 l -0.737,5.771 c -0.573,0.041 -1.268,0.041 -2.086,0 -0.287,-1.351 -0.799,-3.354 -1.535,-6.017 h -0.493 c -0.45,1.433 -0.695,2.211 -0.737,2.334 0,0.163 0.052,0.479 0.155,0.951 0.101,0.472 0.153,0.787 0.153,0.951 0,0.122 -0.042,0.43 -0.125,0.921 l -0.184,1.475 c -0.083,0.079 -0.183,0.12 -0.306,0.12 -1.228,0 -2.048,-0.307 -2.455,-0.919 -0.412,-0.615 -0.576,-1.475 -0.493,-2.58 l 0.493,-7.365 c 0,-0.123 0.039,-0.287 0.121,-0.492 0.082,-0.203 0.123,-0.348 0.123,-0.428 0,-0.328 -0.348,-0.984 -1.043,-1.968 -0.123,-0.04 -0.757,-0.185 -1.904,-0.431 -0.695,-0.162 -2.067,-0.449 -4.112,-0.857 -2.825,-0.531 -4.238,-2.803 -4.238,-6.814 0,-5.978 2.457,-10.949 7.367,-14.92 0.204,1.106 0.554,2.578 1.045,4.42 0.368,0.084 1.167,0.269 2.394,0.554 0.247,0.081 1.494,0.532 3.745,1.351 -1.145,-0.695 -2.64,-1.818 -4.48,-3.375 -0.697,-0.818 -1.046,-2.191 -1.046,-4.113 0,-0.453 0.778,-0.982 2.335,-1.6 1.391,-0.572 2.434,-0.896 3.131,-0.98 2.209,-0.285 3.908,-0.43 5.096,-0.43 5.115,0 9.25,1.311 12.401,3.932 -1.022,1.188 -2.783,2.453 -5.279,3.806 0.982,0.041 2.415,-0.347 4.298,-1.168 1.882,-0.815 2.68,-1.228 2.394,-1.228 0.327,0 0.983,0.656 1.965,1.965 0.735,0.982 1.329,1.863 1.78,2.64 1.31,2.333 2.19,4.853 2.641,7.552 0,0.942 0.02,1.617 0.061,2.025 z m -23.516,1.108 c 0,-1.761 -0.767,-3.429 -2.301,-5.006 -1.536,-1.576 -3.185,-2.363 -4.944,-2.363 -1.555,0 -2.925,0.66 -4.113,1.978 -1.187,1.319 -1.78,2.782 -1.78,4.39 0,1.4 0.675,2.309 2.026,2.719 0.86,0.248 2.066,0.392 3.621,0.434 h 3.377 c 2.743,0.035 4.114,-0.682 4.114,-2.152 z m 6.693,7.612 v -1.901 c -0.286,-0.533 -0.573,-1.088 -0.858,-1.66 -0.246,-0.817 -0.697,-1.963 -1.351,-3.439 l -0.676,7.184 c 0,0.576 -0.122,0.861 -0.369,0.861 -0.163,0 -0.287,-0.04 -0.368,-0.123 -0.287,-4.338 -0.429,-6.222 -0.429,-5.646 v -2.148 c -0.083,-0.126 -0.185,-0.188 -0.308,-0.188 -1.391,1.437 -2.086,3.748 -2.086,6.938 0,1.761 0.163,2.845 0.49,3.257 0.329,-0.083 0.695,-0.227 1.107,-0.431 0.163,-0.083 0.633,-0.123 1.411,-0.123 0.775,0 1.72,0.245 2.823,0.735 0.41,-0.003 0.614,-1.105 0.614,-3.316 z m 13.876,-8.556 c 0,-1.646 -0.614,-3.119 -1.842,-4.418 -1.228,-1.297 -2.64,-1.945 -4.234,-1.945 -1.72,0 -3.328,0.787 -4.821,2.361 -1.495,1.576 -2.242,3.224 -2.242,4.945 0,1.432 0.697,2.147 2.088,2.147 h 7.059 c 2.662,-0.04 3.992,-1.068 3.992,-3.09 z"
   id="path82" />























































</svg>
