<?xml version="1.0" encoding="UTF-8" standalone="no"?>
<!-- Generator: Adobe Illustrator 15.0.2, SVG Export Plug-In . SVG Version: 6.00 Build 0)  -->

<svg
   version="1.1"
   id="Layer_1"
   x="0px"
   y="0px"
   width="100"
   height="99.999023"
   viewBox="-945 -210.002 100 99.999021"
   enable-background="new -945 -210.002 1045 730.002"
   xml:space="preserve"
   xmlns="http://www.w3.org/2000/svg"
   xmlns:svg="http://www.w3.org/2000/svg"><defs
   id="defs150" />
































































































<g
   id="g88"
   transform="translate(-420,-420.003)">
	<path
   fill="#a3c095"
   d="m -439.651,224.637 c 9.052,9.051 14.651,21.551 14.651,35.36 0,27.616 -22.387,50.003 -50,50.003 -13.807,0 -26.305,-5.596 -35.354,-14.646"
   id="path87" />
	<path
   fill="#cac5c0"
   d="M -510.354,295.354 C -519.403,286.307 -525,273.805 -525,259.998 c 0,-27.613 22.387,-49.997 50,-49.997 13.804,0 26.301,5.593 35.349,14.637"
   id="path88" />
</g>
<path
   fill="#0d0f0f"
   d="m -901.354,-168.412 -2.866,9.677 h -23.821 v -2.068 c 1.157,-1.29 3.692,-3.891 7.607,-7.805 2.357,-2.359 4.692,-4.851 7.005,-7.476 1.157,-1.288 2.048,-2.401 2.667,-3.336 1.379,-1.999 2.07,-4.046 2.07,-6.138 0,-2.045 -0.633,-3.848 -1.901,-5.402 -1.267,-1.561 -2.903,-2.339 -4.905,-2.339 -4.313,0 -7.694,2.916 -10.14,8.743 l -2.137,-0.803 c 2.891,-8.183 7.448,-12.274 13.678,-12.274 3.069,0 5.682,1.044 7.839,3.134 2.159,2.092 3.236,4.67 3.236,7.741 0,3.915 -2.245,7.737 -6.738,11.476 l -4.668,3.868 c -2.981,2.492 -5.453,4.827 -7.406,7.005 -0.136,0.137 -0.402,0.446 -0.802,0.936 h 12.41 c 1.912,0 3.359,-0.377 4.335,-1.133 0.845,-0.67 1.67,-1.937 2.47,-3.806 z"
   id="path89" />
<path
   fill="#0d0f0f"
   d="m -855.482,-142.385 c 0,0.758 -0.293,1.437 -0.879,2.043 -0.586,0.604 -1.257,0.905 -2.015,0.905 -1.208,0 -2.098,-0.566 -2.663,-1.701 l -2.667,-0.112 c -0.568,0 -1.684,0.246 -3.346,0.737 -1.777,0.49 -2.798,0.888 -3.063,1.189 -0.415,0.455 -0.755,1.514 -1.021,3.178 -0.228,1.361 -0.339,2.363 -0.339,3.006 0,1.02 0.16,1.768 0.481,2.24 0.321,0.473 0.984,0.869 1.984,1.189 1,0.318 1.616,0.502 1.844,0.539 0.151,0 0.396,-0.018 0.737,-0.057 h 0.681 c 0.491,0 1.002,0.076 1.533,0.227 0.755,0.227 1.078,0.527 0.965,0.907 -0.531,-0.074 -1.456,0.038 -2.779,0.34 l 1.586,0.795 c 0,0.454 -0.642,0.679 -1.928,0.679 -0.342,0 -0.805,-0.072 -1.389,-0.225 -0.587,-0.154 -0.975,-0.229 -1.163,-0.229 h -0.737 c -0.039,0.379 -0.151,0.943 -0.34,1.701 -0.645,-0.037 -1.4,-0.416 -2.27,-1.133 -0.87,-0.72 -1.418,-1.079 -1.643,-1.079 -0.228,0 -0.55,0.359 -0.965,1.079 -0.417,0.717 -0.625,1.207 -0.625,1.475 -0.491,-0.268 -0.905,-0.758 -1.249,-1.475 -0.151,-0.495 -0.321,-0.986 -0.509,-1.479 -0.378,0.039 -1.077,0.836 -2.098,2.385 h -0.284 c -0.077,-0.113 -0.361,-0.906 -0.853,-2.385 -1.172,-0.375 -2.267,-0.563 -3.288,-0.563 -0.491,0 -1.249,0.112 -2.271,0.341 l -1.586,-0.113 c 0.225,-0.228 0.888,-0.662 1.984,-1.305 1.285,-0.758 2.269,-1.137 2.949,-1.137 0.112,0 0.263,0.021 0.454,0.059 0.188,0.039 0.34,0.058 0.454,0.058 0.262,0 0.69,-0.142 1.276,-0.427 0.586,-0.283 0.926,-0.539 1.018,-0.766 0.098,-0.229 0.145,-0.813 0.145,-1.759 0,-2.153 -0.568,-3.763 -1.703,-4.819 -0.984,-0.945 -2.608,-1.625 -4.876,-2.043 -0.605,2.154 -2.307,3.234 -5.104,3.234 -0.909,0 -1.815,-0.549 -2.723,-1.646 -0.905,-1.098 -1.361,-2.099 -1.361,-3.006 0,-1.4 0.586,-2.552 1.758,-3.46 -0.944,-0.981 -1.417,-1.983 -1.417,-3.006 0,-0.944 0.292,-1.776 0.879,-2.496 0.586,-0.716 1.353,-1.133 2.296,-1.248 -0.074,-1.208 0.321,-2.042 1.191,-2.495 -0.416,-0.414 -0.623,-1.15 -0.623,-2.211 0,-1.246 0.415,-2.287 1.248,-3.119 0.83,-0.83 1.872,-1.248 3.117,-1.248 1.363,0 2.479,0.475 3.347,1.418 1.098,-3.742 3.459,-5.613 7.089,-5.613 1.89,0 3.554,0.756 4.991,2.27 0.53,0.565 0.793,0.868 0.793,0.905 -0.453,0 -0.225,-0.086 0.681,-0.254 0.908,-0.171 1.568,-0.257 1.985,-0.257 1.474,0 2.779,0.55 3.915,1.646 0.983,0.984 1.664,2.229 2.042,3.742 0.264,0.039 0.679,0.151 1.246,0.341 0.832,0.417 1.249,1.135 1.249,2.155 0,0.188 -0.152,0.549 -0.454,1.079 2.419,1.361 3.629,3.251 3.629,5.67 0,0.682 -0.265,1.627 -0.793,2.836 0.986,0.569 1.477,1.401 1.477,2.498 z m -23.366,2.495 v -0.736 c 0,-0.869 -0.425,-1.664 -1.275,-2.382 -0.851,-0.72 -1.71,-1.077 -2.581,-1.077 -1.06,0 -2.042,0.246 -2.949,0.734 2.003,-0.11 4.272,1.041 6.805,3.461 z m -1.021,-7.03 c -0.567,-0.646 -1.058,-1.306 -1.474,-1.985 -1.589,0.414 -2.382,0.889 -2.382,1.416 0.453,-0.037 1.116,0.047 1.984,0.256 0.868,0.209 1.494,0.313 1.872,0.313 z m 3.462,-1.761 v -2.495 c -0.91,-0.149 -1.459,-0.226 -1.646,-0.226 v 0.851 z m 7.372,-1.586 c -0.455,-0.189 -1.305,-0.568 -2.554,-1.135 v 4.877 c 1.778,-1.022 2.628,-2.268 2.554,-3.742 z m 3.116,6.692 -1.246,-1.529 c -0.754,0.529 -1.521,1.066 -2.298,1.615 -0.775,0.547 -1.446,1.162 -2.011,1.844 1.699,-0.911 3.555,-1.551 5.555,-1.93 z"
   id="path90" />

















































</svg>
