<?xml version="1.0" encoding="UTF-8" standalone="no"?>
<!-- Generator: Adobe Illustrator 15.0.2, SVG Export Plug-In . SVG Version: 6.00 Build 0)  -->

<svg
   version="1.1"
   id="Layer_1"
   x="0px"
   y="0px"
   width="100"
   height="99.999023"
   viewBox="-945 -210.002 100 99.999021"
   enable-background="new -945 -210.002 1045 730.002"
   xml:space="preserve"
   xmlns="http://www.w3.org/2000/svg"
   xmlns:svg="http://www.w3.org/2000/svg"><defs
   id="defs150" />





























































































<g
   id="g84"
   transform="translate(-315,-420.003)">
	<path
   fill="#e49977"
   d="m -544.651,224.637 c 9.052,9.051 14.651,21.551 14.651,35.36 0,27.616 -22.387,50.003 -50,50.003 -13.807,0 -26.305,-5.596 -35.354,-14.646"
   id="path83" />
	<path
   fill="#cac5c0"
   d="M -615.354,295.354 C -624.403,286.307 -630,273.805 -630,259.998 c 0,-27.613 22.387,-49.997 50,-49.997 13.802,0 26.301,5.593 35.349,14.637"
   id="path84" />
</g>
<path
   fill="#0d0f0f"
   d="m -856.7,-135.564 c -1.718,4.099 -5.13,6.145 -10.24,6.145 -0.937,0 -1.952,0.117 -3.044,0.354 -1.639,0.349 -2.458,0.838 -2.458,1.463 0,0.193 0.136,0.418 0.41,0.674 0.272,0.254 0.508,0.38 0.703,0.38 -0.977,0 -0.314,0.028 1.987,0.087 2.303,0.059 3.747,0.089 4.333,0.089 -3.394,1.987 -9.07,2.903 -17.029,2.75 -2.614,-0.039 -4.857,-1.19 -6.729,-3.454 -1.835,-2.146 -2.751,-4.541 -2.751,-7.197 0,-2.808 0.946,-5.196 2.839,-7.168 1.89,-1.97 4.242,-2.955 7.051,-2.955 0.623,0 1.453,0.137 2.486,0.41 1.034,0.273 1.727,0.41 2.077,0.41 1.444,0 3.239,-0.596 5.385,-1.787 2.146,-1.188 3.16,-1.783 3.043,-1.783 -0.391,4.098 -1.756,6.847 -4.097,8.252 -1.678,0.976 -2.516,1.93 -2.516,2.867 0,0.582 0.35,1.053 1.052,1.403 0.546,0.274 1.151,0.41 1.815,0.41 1.014,0 2.008,-0.624 2.984,-1.873 0.974,-1.249 1.403,-2.379 1.286,-3.396 -0.116,-1.17 -0.037,-2.573 0.235,-4.213 0.077,-0.469 0.361,-1.043 0.848,-1.727 0.488,-0.684 0.928,-1.102 1.317,-1.258 0,0.35 -0.127,0.936 -0.38,1.755 -0.254,0.819 -0.38,1.427 -0.38,1.813 0,0.858 0.234,1.521 0.703,1.99 0.701,-0.273 1.324,-1.152 1.872,-2.634 0.468,-1.131 0.74,-2.224 0.82,-3.276 -1.64,-0.078 -3.211,-0.818 -4.711,-2.224 -1.501,-1.405 -2.252,-2.927 -2.252,-4.563 0,-0.273 0.037,-0.547 0.117,-0.82 0.232,0.352 0.583,0.898 1.053,1.639 0.662,0.977 1.17,1.462 1.521,1.462 0.468,0 0.702,-0.485 0.702,-1.462 0,-1.248 -0.332,-2.38 -0.995,-3.395 -0.743,-1.209 -1.699,-1.813 -2.867,-1.813 -0.548,0 -1.366,0.291 -2.458,0.877 -1.093,0.583 -2.088,0.877 -2.983,0.877 -0.273,0 -1.484,-0.352 -3.629,-1.054 3.783,-0.622 5.676,-1.188 5.676,-1.696 0,-1.324 -2.594,-2.224 -7.783,-2.691 -0.508,-0.037 -1.443,-0.116 -2.809,-0.234 0.155,-0.193 1.268,-0.408 3.336,-0.645 1.755,-0.192 2.983,-0.291 3.685,-0.291 9.285,0 15.175,4.508 17.673,13.521 0.431,-0.356 0.645,-0.952 0.645,-1.78 0,-1.07 -0.312,-2.414 -0.937,-4.035 -0.235,-0.633 -0.607,-1.582 -1.113,-2.847 3.198,4.075 4.8,7.938 4.8,11.584 0,1.921 -0.451,3.664 -1.348,5.231 -0.583,1.057 -1.678,2.408 -3.276,4.058 -1.6,1.646 -2.691,2.92 -3.277,3.82 2.146,-0.583 3.551,-1.034 4.214,-1.347 1.481,-0.662 2.828,-1.658 4.037,-2.982 0,0.505 -0.215,1.268 -0.643,2.279 z m -25.514,-22.996 c 0,0.701 -0.391,1.148 -1.17,1.346 l -1.521,0.232 c -0.547,0.272 -1.347,1.348 -2.398,3.22 -0.119,-0.585 -0.293,-1.402 -0.528,-2.458 -0.351,0.039 -0.935,0.351 -1.755,0.938 -0.351,0.271 -0.917,0.684 -1.699,1.229 0.235,-1.404 1.017,-2.826 2.342,-4.271 1.404,-1.601 2.77,-2.398 4.096,-2.398 1.755,-0.004 2.633,0.719 2.633,2.162 z m 10.182,5.384 c 0,0.663 -0.361,1.219 -1.083,1.667 -0.722,0.449 -1.434,0.674 -2.135,0.674 -0.938,0 -1.777,-0.527 -2.517,-1.58 -0.898,-1.287 -1.814,-2.125 -2.75,-2.518 0.194,-0.193 0.429,-0.293 0.704,-0.293 0.349,0 0.944,0.273 1.783,0.818 0.837,0.549 1.375,0.819 1.61,0.819 0.195,0 0.516,-0.271 0.964,-0.819 0.448,-0.545 0.946,-0.818 1.493,-0.818 1.288,0 1.931,0.686 1.931,2.05 z"
   id="path85" />
<path
   fill="#0d0f0f"
   d="m -901.354,-168.41 -2.866,9.675 h -23.821 v -2.068 c 1.157,-1.289 3.692,-3.889 7.607,-7.805 2.357,-2.357 4.692,-4.851 7.005,-7.476 1.157,-1.287 2.048,-2.401 2.667,-3.335 1.379,-2 2.07,-4.045 2.07,-6.139 0,-2.045 -0.633,-3.846 -1.901,-5.402 -1.267,-1.559 -2.903,-2.338 -4.905,-2.338 -4.313,0 -7.694,2.915 -10.14,8.742 l -2.137,-0.801 c 2.891,-8.185 7.448,-12.276 13.678,-12.276 3.069,0 5.682,1.044 7.839,3.135 2.159,2.091 3.236,4.67 3.236,7.74 0,3.915 -2.245,7.739 -6.738,11.478 l -4.668,3.866 c -2.981,2.492 -5.453,4.827 -7.406,7.007 -0.136,0.135 -0.402,0.446 -0.802,0.936 h 12.41 c 1.912,0 3.359,-0.377 4.335,-1.135 0.845,-0.668 1.67,-1.937 2.47,-3.803 z"
   id="path86" />




















































</svg>
