<?xml version="1.0" encoding="UTF-8" standalone="no"?>
<!-- Generator: Adobe Illustrator 15.0.2, SVG Export Plug-In . SVG Version: 6.00 Build 0)  -->

<svg
   version="1.1"
   id="Layer_1"
   x="0px"
   y="0px"
   width="100"
   height="99.999023"
   viewBox="-945 -210.002 100 99.999021"
   enable-background="new -945 -210.002 1045 730.002"
   xml:space="preserve"
   xmlns="http://www.w3.org/2000/svg"
   xmlns:svg="http://www.w3.org/2000/svg"><defs
   id="defs150" />























































































<g
   id="g76"
   transform="translate(-105,-420.003)">
	<path
   fill="#c1d7e9"
   d="m -754.651,224.637 c 9.052,9.051 14.651,21.551 14.651,35.36 0,27.616 -22.386,50.003 -50.001,50.003 -13.806,0 -26.305,-5.596 -35.354,-14.646"
   id="path75" />
	<path
   fill="#cac5c0"
   d="M -825.354,295.354 C -834.403,286.307 -840,273.805 -840,259.998 c 0,-27.613 22.386,-49.997 49.999,-49.997 13.804,0 26.302,5.593 35.35,14.637"
   id="path76" />
</g>
<path
   fill="#0d0f0f"
   d="m -868.278,-126.328 c -2.692,2.739 -6.008,4.108 -9.947,4.108 -4.422,0 -7.929,-1.514 -10.524,-4.54 -2.452,-2.884 -3.676,-6.558 -3.676,-11.028 0,-4.804 2.09,-10.281 6.271,-16.434 3.41,-5.047 7.423,-9.467 12.037,-13.264 -0.673,3.076 -1.01,5.262 -1.01,6.561 0,2.98 0.937,5.886 2.811,8.721 2.307,3.365 4.061,5.864 5.262,7.496 1.874,2.835 2.811,5.6 2.811,8.289 0.001,3.99 -1.344,7.354 -4.035,10.091 z m -0.072,-15.388 c -0.721,-1.609 -1.562,-2.68 -2.523,-3.208 0.145,0.288 0.215,0.698 0.215,1.226 0,1.01 -0.287,2.453 -0.863,4.324 l -0.938,2.885 c 0,1.68 0.839,2.522 2.522,2.522 1.777,0 2.668,-1.177 2.668,-3.532 0,-1.201 -0.36,-2.608 -1.081,-4.217 z"
   id="path77" />
<path
   fill="#0d0f0f"
   d="m -901.354,-168.41 -2.866,9.675 h -23.821 v -2.068 c 1.157,-1.289 3.692,-3.889 7.607,-7.805 2.357,-2.357 4.692,-4.851 7.005,-7.476 1.157,-1.287 2.048,-2.401 2.667,-3.335 1.379,-2 2.07,-4.045 2.07,-6.139 0,-2.045 -0.633,-3.846 -1.901,-5.402 -1.267,-1.559 -2.903,-2.338 -4.905,-2.338 -4.313,0 -7.694,2.915 -10.14,8.742 l -2.137,-0.801 c 2.891,-8.185 7.448,-12.276 13.678,-12.276 3.069,0 5.682,1.044 7.839,3.135 2.159,2.091 3.236,4.67 3.236,7.74 0,3.915 -2.245,7.739 -6.738,11.478 l -4.668,3.866 c -2.981,2.492 -5.453,4.827 -7.406,7.007 -0.136,0.135 -0.402,0.446 -0.802,0.936 h 12.41 c 1.912,0 3.359,-0.377 4.335,-1.135 0.845,-0.668 1.67,-1.937 2.47,-3.803 z"
   id="path78" />


























































</svg>
