<?xml version="1.0" encoding="UTF-8" standalone="no"?>
<!-- Generator: Adobe Illustrator 15.0.2, SVG Export Plug-In . SVG Version: 6.00 Build 0)  -->

<svg
   version="1.1"
   id="Layer_1"
   x="0px"
   y="0px"
   width="100"
   height="99.999023"
   viewBox="-945 -210.002 100 99.999021"
   enable-background="new -945 -210.002 1045 730.002"
   xml:space="preserve"
   xmlns="http://www.w3.org/2000/svg"
   xmlns:svg="http://www.w3.org/2000/svg"><defs
   id="defs150" />




















































































<g
   id="g72"
   transform="translate(0,-420.003)">
	<path
   fill="#f8f6d8"
   d="m -859.651,224.637 c 9.052,9.051 14.651,21.551 14.651,35.36 0,27.616 -22.386,50.003 -50.001,50.003 -13.806,0 -26.305,-5.596 -35.354,-14.646"
   id="path71" />
	<path
   fill="#cac5c0"
   d="M -930.354,295.354 C -939.403,286.307 -945,273.805 -945,259.998 c 0,-27.613 22.386,-49.997 49.999,-49.997 13.804,0 26.302,5.593 35.35,14.637"
   id="path72" />
</g>
<path
   fill="#0d0f0f"
   d="m -901.354,-168.412 -2.866,9.677 h -23.821 v -2.068 c 1.157,-1.29 3.692,-3.891 7.607,-7.805 2.357,-2.359 4.692,-4.851 7.005,-7.476 1.157,-1.288 2.048,-2.401 2.667,-3.336 1.379,-1.999 2.07,-4.046 2.07,-6.138 0,-2.045 -0.633,-3.848 -1.901,-5.402 -1.267,-1.561 -2.903,-2.339 -4.905,-2.339 -4.313,0 -7.694,2.916 -10.14,8.743 l -2.137,-0.803 c 2.891,-8.183 7.448,-12.274 13.678,-12.274 3.069,0 5.682,1.044 7.839,3.134 2.159,2.092 3.236,4.67 3.236,7.741 0,3.915 -2.245,7.737 -6.738,11.476 l -4.668,3.868 c -2.981,2.492 -5.453,4.827 -7.406,7.005 -0.136,0.137 -0.402,0.446 -0.802,0.936 h 12.41 c 1.912,0 3.359,-0.377 4.335,-1.133 0.845,-0.67 1.67,-1.937 2.47,-3.806 z"
   id="path73" />
<path
   fill="#0d0f0f"
   d="m -857,-136.892 c -2.436,-2.264 -4.054,-3.491 -4.847,-3.682 -0.577,-0.138 -1.135,0.198 -1.672,1.006 -0.537,0.808 -1.292,1.092 -2.269,0.858 -0.396,-0.095 -1.175,-0.435 -2.333,-1.017 -0.938,0.885 -1.441,1.471 -1.51,1.758 -0.095,0.398 0.088,0.938 0.55,1.622 0.46,0.684 0.894,1.071 1.3,1.17 0.258,0.062 0.622,0.091 1.091,0.089 0.467,-0.001 0.777,0.016 0.926,0.051 0.444,0.104 0.469,0.971 0.078,2.598 -0.37,1.552 -1.302,3.852 -2.793,6.892 -0.058,-3.909 -0.609,-5.989 -1.656,-6.239 -0.145,-0.035 -0.469,0.004 -0.972,0.111 -0.504,0.107 -0.864,0.137 -1.08,0.085 -1.047,-0.251 -1.758,-1.433 -2.13,-3.546 -1.723,-0.145 -2.757,0.506 -3.103,1.949 -0.173,0.726 0.024,1.383 0.589,1.976 0.564,0.592 0.824,0.979 0.783,1.16 -0.233,0.978 -2.021,2.133 -5.355,3.473 -1.777,0.722 -3.006,1.228 -3.688,1.522 0.658,-0.528 1.369,-1.256 2.126,-2.182 0.863,-1.057 1.372,-1.906 1.529,-2.559 0.086,-0.359 -0.209,-0.967 -0.883,-1.814 -0.676,-0.849 -0.926,-1.634 -0.753,-2.355 0.146,-0.614 0.543,-1.319 1.193,-2.12 -0.34,-0.653 -0.834,-1.06 -1.486,-1.215 -1.444,-0.347 -2.278,-0.05 -2.503,0.891 0.155,-0.651 0.039,-0.163 -0.349,1.462 -0.25,1.2 -1.296,1.58 -3.138,1.141 -1.409,-0.338 -3.696,-1.229 -6.864,-2.674 3.982,-0.039 6.118,-0.674 6.411,-1.901 -0.032,0.146 -0.003,-0.308 0.096,-1.353 0.123,-1.154 1.16,-1.977 3.109,-2.465 0.072,-1.738 -0.593,-2.777 -2.003,-3.113 -0.216,-0.053 -0.706,0.231 -1.463,0.853 -0.761,0.619 -1.394,0.87 -1.898,0.748 -0.867,-0.205 -1.762,-1.413 -2.684,-3.62 -0.426,-1.096 -1.087,-2.723 -1.983,-4.885 0.727,0.632 1.453,1.266 2.181,1.896 0.963,0.766 1.77,1.225 2.419,1.383 0.506,0.119 1.108,-0.205 1.808,-0.974 0.698,-0.769 1.445,-1.058 2.24,-0.866 0.111,0.026 0.78,0.414 2.012,1.168 0.937,-0.883 1.466,-1.576 1.587,-2.082 0.102,-0.435 -0.04,-0.994 -0.43,-1.679 -0.389,-0.687 -0.802,-1.079 -1.236,-1.185 -0.18,-0.043 -0.472,-0.057 -0.877,-0.039 -0.405,0.02 -0.698,0.006 -0.879,-0.037 -0.649,-0.155 -0.781,-1.045 -0.392,-2.672 0.102,-0.434 1.111,-2.809 3.023,-7.122 -0.166,0.53 -0.173,1.6 -0.021,3.202 0.18,1.953 0.687,3.027 1.518,3.228 0.144,0.033 0.458,-0.005 0.945,-0.118 0.484,-0.113 0.853,-0.14 1.104,-0.078 0.83,0.197 1.404,0.832 1.722,1.9 l 0.463,1.654 c 0.757,0.184 1.454,0.064 2.089,-0.356 0.636,-0.421 1.046,-1.011 1.227,-1.769 0.189,-0.795 0,-1.479 -0.568,-2.055 -0.57,-0.576 -0.829,-0.972 -0.775,-1.188 0.181,-0.759 1.679,-1.755 4.495,-2.99 2.259,-0.985 3.709,-1.536 4.349,-1.651 -2.054,1.725 -3.199,3.07 -3.431,4.047 -0.122,0.507 0.055,1.121 0.531,1.848 0.595,0.867 0.911,1.459 0.95,1.771 0.161,0.92 -0.146,2.047 -0.925,3.39 0.811,0.92 1.469,1.438 1.977,1.562 1.044,0.25 1.698,-0.168 1.958,-1.25 0.026,-0.109 0.063,-0.463 0.112,-1.063 0.046,-0.6 0.099,-0.932 0.151,-0.995 0.267,-0.472 1.32,-0.487 3.162,-0.045 1.156,0.276 3.479,1.175 6.972,2.698 -0.847,0.027 -2.116,0.065 -3.809,0.121 -1.549,0.086 -2.388,0.401 -2.52,0.942 -0.059,0.253 -0.074,0.708 -0.04,1.364 0.034,0.656 0.018,1.132 -0.053,1.421 -0.12,0.506 -0.558,0.896 -1.311,1.175 l -2.156,0.859 c 0.246,0.898 0.42,1.438 0.531,1.615 0.259,0.521 0.692,0.854 1.307,1.002 0.434,0.104 0.922,-0.18 1.465,-0.854 0.542,-0.672 1.212,-0.913 2.006,-0.722 0.976,0.232 1.861,1.398 2.657,3.498 0.445,1.177 1.143,2.968 2.096,5.371 z m -11.275,-6.019 c 0.552,-2.313 0.184,-4.52 -1.108,-6.623 -1.292,-2.103 -3.094,-3.433 -5.404,-3.986 -2.348,-0.561 -4.574,-0.205 -6.672,1.07 -2.098,1.271 -3.447,3.077 -4.045,5.416 -0.59,2.303 -0.21,4.504 1.141,6.604 1.349,2.098 3.18,3.425 5.492,3.978 2.455,0.587 4.698,0.274 6.725,-0.94 2.028,-1.215 3.318,-3.056 3.871,-5.519 z m -0.813,-0.196 c -0.527,2.203 -1.703,3.851 -3.531,4.939 -1.826,1.09 -3.842,1.373 -6.044,0.846 -2.131,-0.51 -3.778,-1.687 -4.941,-3.531 -1.163,-1.844 -1.488,-3.83 -0.979,-5.961 0.503,-2.096 1.699,-3.709 3.593,-4.842 1.896,-1.13 3.889,-1.445 5.982,-0.943 2.094,0.5 3.729,1.693 4.899,3.576 1.173,1.887 1.513,3.858 1.021,5.916 z"
   id="path74" />





























































</svg>
