<?xml version="1.0" encoding="UTF-8" standalone="no"?>
<!-- Generator: Adobe Illustrator 15.0.2, SVG Export Plug-In . SVG Version: 6.00 Build 0)  -->

<svg
   version="1.1"
   id="Layer_1"
   x="0px"
   y="0px"
   width="100"
   height="100"
   viewBox="-945 -210.002 100 99.999998"
   enable-background="new -945 -210.002 1045 730.002"
   xml:space="preserve"
   xmlns="http://www.w3.org/2000/svg"
   xmlns:svg="http://www.w3.org/2000/svg"><defs
   id="defs150" />










<g
   id="g6"
   transform="translate(-525)">
	<circle
   fill="#cac5c0"
   cx="-370"
   cy="-160.002"
   r="50"
   id="circle6" />
</g>
<path
   fill="#0d0f0f"
   d="m -910.043,-198.648 h 28.941 c 3.754,0 5.988,-0.45 6.703,-1.352 h 4.156 l -2.422,10.925 h -35.314 l -3.408,15.789 c 5.127,-2.07 9.668,-3.104 13.625,-3.104 7.729,0 14.25,2.587 19.559,7.758 5.305,5.171 7.961,11.622 7.961,19.357 0,8.996 -3.465,16.237 -10.394,21.722 -6.385,5.039 -14.162,7.553 -23.338,7.553 -5.395,0 -10.66,-0.808 -15.785,-2.426 l 1.617,-4.046 c 4.32,1.169 8.141,1.751 11.469,1.751 6.654,0 12.477,-2.18 17.473,-6.544 4.99,-4.358 7.488,-9.826 7.488,-16.392 0,-5.665 -1.844,-10.32 -5.533,-13.959 -3.689,-3.646 -8.365,-5.468 -14.033,-5.468 -5.213,0 -10.07,1.8 -14.568,5.396 l -2.701,-0.538 z"
   id="path6" />








































































































































</svg>
