<?xml version="1.0" encoding="UTF-8" standalone="no"?>
<!-- Generator: Adobe Illustrator 15.0.2, SVG Export Plug-In . SVG Version: 6.00 Build 0)  -->

<svg
   version="1.1"
   id="Layer_1"
   x="0px"
   y="0px"
   width="100"
   height="100"
   viewBox="-945 -210.002 100 99.999998"
   enable-background="new -945 -210.002 1045 730.002"
   xml:space="preserve"
   xmlns="http://www.w3.org/2000/svg"
   xmlns:svg="http://www.w3.org/2000/svg"><defs
   id="defs150" />














<g
   id="g8"
   transform="translate(-735)">
	<circle
   fill="#cac5c0"
   cx="-160"
   cy="-160.002"
   r="50"
   id="circle8" />
</g>
<path
   fill="#0d0f0f"
   d="m -891.506,-120 h -11.643 v -1.238 c 0,-7.396 2.328,-16.659 6.98,-27.808 7.035,-16.799 13.52,-29.673 19.453,-38.624 l 0.822,-1.232 h -27.256 c -3.93,0 -6.92,0.819 -8.975,2.463 -2.059,1.645 -3.582,4.387 -4.586,8.222 h -4.52 l 4.926,-21.782 h 2.881 c 1.734,0.914 4.742,1.371 9.041,1.371 h 35.609 v 6.165 c -1.275,1.829 -2.918,4.75 -4.926,8.768 -3.838,7.485 -7.352,16.208 -10.553,26.163 -4.743,14.702 -7.163,27.209 -7.253,37.532 z"
   id="path8" />




































































































































</svg>
