<?xml version="1.0" encoding="UTF-8" standalone="no"?>
<!-- Generator: Adobe Illustrator 15.0.2, SVG Export Plug-In . SVG Version: 6.00 Build 0)  -->

<svg
   version="1.1"
   id="Layer_1"
   x="0px"
   y="0px"
   width="100"
   height="100"
   viewBox="-945 -210.002 100 99.999998"
   enable-background="new -945 -210.002 1045 730.002"
   xml:space="preserve"
   xmlns="http://www.w3.org/2000/svg"
   xmlns:svg="http://www.w3.org/2000/svg"><defs
   id="defs150" />


















<g
   id="g10"
   transform="translate(-945)">
	<circle
   fill="#cac5c0"
   cx="50"
   cy="-160.002"
   r="50"
   id="circle10" />
</g>
<path
   fill="#0d0f0f"
   d="m -881.598,-154.476 c -5.922,5.567 -11.898,8.353 -17.91,8.353 -6.555,0 -11.809,-2.604 -15.758,-7.814 -3.684,-4.758 -5.523,-10.507 -5.523,-17.241 0,-7.272 2.152,-13.777 6.461,-19.526 4.672,-6.199 10.555,-9.296 17.648,-9.296 8.622,0 15.489,3.728 20.605,11.181 4.582,6.554 6.867,14.319 6.867,23.302 0,12.746 -4.224,23.498 -12.655,32.257 -8.441,8.752 -18.993,13.174 -31.653,13.261 v -4.175 c 3.859,-0.176 6.953,-0.626 9.297,-1.344 12.922,-3.951 20.469,-13.601 22.621,-28.958 z m 0.813,-8.082 c 0.086,-1.706 0.129,-3.322 0.129,-4.846 0,-6.285 -1.074,-12.034 -3.23,-17.24 -2.875,-6.916 -7,-10.374 -12.386,-10.374 -4.676,0 -8.125,2.385 -10.375,7.141 -1.797,3.683 -2.691,8.126 -2.691,13.334 0,5.566 0.852,10.324 2.559,14.275 2.332,5.387 5.926,8.083 10.777,8.083 5.92,0 10.99,-3.458 15.217,-10.373 z"
   id="path10" />
































































































































</svg>
