<?xml version="1.0" encoding="UTF-8" standalone="no"?>
<!-- Generator: Adobe Illustrator 15.0.2, SVG Export Plug-In . SVG Version: 6.00 Build 0)  -->

<svg
   version="1.1"
   id="Layer_1"
   x="0px"
   y="0px"
   width="100"
   height="100"
   viewBox="-945 -210.002 100 99.999998"
   enable-background="new -945 -210.002 1045 730.002"
   xml:space="preserve"
   xmlns="http://www.w3.org/2000/svg"
   xmlns:svg="http://www.w3.org/2000/svg"><defs
   id="defs150" />














































<g
   id="g25"
   transform="translate(-630,-210)">
	<circle
   fill="#bab1ab"
   cx="-265"
   cy="49.998001"
   r="50"
   id="circle25" />
</g>
<path
   fill="#0d0f0f"
   d="m -854.305,-161.381 c 0,5.518 -2.008,9.281 -6.02,11.287 -1.172,0.586 -4.85,1.379 -11.037,2.383 -4.012,0.67 -6.018,2.217 -6.018,4.639 v 10.158 c 0,0.422 0.125,1.715 0.375,3.889 l 0.377,4.014 c 0,1.255 -0.293,3.306 -0.879,6.146 -1.588,0.334 -3.428,0.709 -5.518,1.132 -0.67,-2.511 -1.004,-4.224 -1.004,-5.146 0,-0.416 0.105,-1.045 0.313,-1.882 0.207,-0.834 0.316,-1.461 0.316,-1.883 0,-0.58 -0.52,-2.213 -1.559,-4.887 h -1.945 c -0.258,0.418 -0.344,0.961 -0.26,1.629 0.334,1.422 0.459,2.633 0.377,3.637 -1.422,1.004 -3.387,2.341 -5.895,4.013 -0.586,-0.166 -0.793,-0.25 -0.629,-0.25 v -8.904 c -0.164,-0.416 -0.584,-0.581 -1.254,-0.502 h -1.504 l -1.504,11.787 c -1.174,0.084 -2.592,0.084 -4.264,0 -0.588,-2.758 -1.631,-6.853 -3.135,-12.289 h -1.004 c -0.922,2.929 -1.422,4.519 -1.506,4.769 0,0.334 0.104,0.981 0.314,1.942 0.207,0.962 0.313,1.609 0.313,1.943 0,0.25 -0.084,0.877 -0.25,1.881 l -0.377,3.01 c -0.168,0.166 -0.377,0.25 -0.627,0.25 -2.508,0 -4.182,-0.627 -5.016,-1.879 -0.836,-1.256 -1.172,-3.012 -1.004,-5.271 l 1.004,-15.047 c 0,-0.252 0.082,-0.586 0.25,-1.004 0.164,-0.418 0.25,-0.711 0.25,-0.877 0,-0.67 -0.711,-2.008 -2.131,-4.014 -0.248,-0.082 -1.549,-0.377 -3.887,-0.879 -1.424,-0.334 -4.225,-0.918 -8.402,-1.756 -5.771,-1.084 -8.654,-5.725 -8.654,-13.92 0,-12.207 5.018,-22.365 15.051,-30.475 0.414,2.258 1.127,5.266 2.129,9.029 0.754,0.17 2.385,0.545 4.891,1.129 0.504,0.168 3.053,1.088 7.652,2.76 -2.344,-1.422 -5.393,-3.719 -9.156,-6.898 -1.422,-1.672 -2.133,-4.471 -2.133,-8.4 0,-0.92 1.59,-2.008 4.768,-3.264 2.84,-1.17 4.975,-1.836 6.396,-2.006 4.514,-0.582 7.984,-0.879 10.41,-0.879 10.449,0 18.891,2.678 25.328,8.029 -2.088,2.426 -5.684,5.014 -10.783,7.773 2.008,0.084 4.934,-0.707 8.779,-2.383 3.844,-1.67 5.475,-2.508 4.891,-2.508 0.668,0 2.008,1.34 4.014,4.014 1.504,2.006 2.715,3.807 3.637,5.391 2.674,4.768 4.471,9.908 5.393,15.426 0,1.926 0.041,3.305 0.125,4.139 v 1.004 z m -48.031,2.258 c 0,-3.594 -1.568,-7.002 -4.703,-10.223 -3.137,-3.219 -6.502,-4.826 -10.096,-4.826 -3.178,0 -5.977,1.348 -8.402,4.039 -2.426,2.693 -3.637,5.682 -3.637,8.963 0,2.859 1.379,4.713 4.139,5.553 1.756,0.506 4.219,0.801 7.398,0.883 h 6.898 c 5.598,0.084 8.403,-1.379 8.403,-4.389 z m 13.668,15.553 v -3.889 c -0.584,-1.086 -1.17,-2.215 -1.754,-3.387 -0.502,-1.674 -1.422,-4.014 -2.76,-7.025 l -1.381,14.674 c 0,1.172 -0.25,1.756 -0.752,1.756 -0.334,0 -0.584,-0.082 -0.752,-0.248 -0.586,-8.863 -0.879,-12.709 -0.879,-11.541 v -4.387 c -0.168,-0.254 -0.375,-0.379 -0.625,-0.379 -2.844,2.93 -4.264,7.652 -4.264,14.172 0,3.596 0.33,5.811 1.002,6.648 0.67,-0.166 1.422,-0.459 2.258,-0.877 0.334,-0.168 1.295,-0.252 2.887,-0.252 1.584,0 3.51,0.502 5.766,1.504 0.836,0 1.254,-2.256 1.254,-6.769 z m 28.344,-17.475 c 0,-3.367 -1.254,-6.375 -3.762,-9.025 -2.51,-2.648 -5.395,-3.975 -8.652,-3.975 -3.512,0 -6.795,1.607 -9.846,4.826 -3.053,3.219 -4.578,6.584 -4.578,10.096 0,2.928 1.42,4.389 4.264,4.389 h 14.422 c 5.433,-0.082 8.152,-2.186 8.152,-6.311 z"
   id="path26" />




































































































</svg>
