<?xml version="1.0" encoding="UTF-8" standalone="no"?>
<!-- Generator: Adobe Illustrator 15.0.2, SVG Export Plug-In . SVG Version: 6.00 Build 0)  -->

<svg
   version="1.1"
   id="Layer_1"
   x="0px"
   y="0px"
   width="100"
   height="99.999023"
   viewBox="-945 -210.002 100 99.999021"
   enable-background="new -945 -210.002 1045 730.002"
   xml:space="preserve"
   xmlns="http://www.w3.org/2000/svg"
   xmlns:svg="http://www.w3.org/2000/svg"><defs
   id="defs150" />





































































<g
   id="g52"
   transform="translate(-525,-315.003)">
	<path
   fill="#a3c095"
   d="m -334.651,119.637 c 9.053,9.051 14.651,21.551 14.651,35.36 0,27.616 -22.387,50.003 -50,50.003 -13.807,0 -26.305,-5.596 -35.354,-14.646"
   id="path51" />
	<path
   fill="#bab1ab"
   d="m -405.354,190.354 c -9.05,-9.047 -14.646,-21.549 -14.646,-35.356 0,-27.613 22.387,-49.997 50,-49.997 13.802,0 26.301,5.594 35.349,14.637"
   id="path52" />
</g>
<path
   fill="#0d0f0f"
   d="m -891.743,-181.892 c 0,2.701 -0.982,4.543 -2.947,5.525 -0.574,0.287 -2.374,0.678 -5.404,1.166 -1.963,0.329 -2.945,1.088 -2.945,2.271 v 4.973 c 0,0.209 0.062,0.842 0.184,1.906 l 0.185,1.965 c 0,0.613 -0.144,1.617 -0.431,3.008 -0.776,0.163 -1.678,0.348 -2.7,0.555 -0.328,-1.229 -0.491,-2.069 -0.491,-2.52 0,-0.203 0.05,-0.512 0.152,-0.921 0.102,-0.408 0.153,-0.716 0.153,-0.921 0,-0.284 -0.253,-1.084 -0.762,-2.393 h -0.953 c -0.125,0.203 -0.167,0.469 -0.127,0.795 0.164,0.696 0.225,1.289 0.186,1.781 -0.697,0.491 -1.657,1.146 -2.886,1.965 -0.288,-0.082 -0.39,-0.123 -0.308,-0.123 v -4.359 c -0.082,-0.202 -0.286,-0.285 -0.614,-0.245 h -0.737 l -0.736,5.771 c -0.572,0.041 -1.269,0.041 -2.086,0 -0.287,-1.35 -0.8,-3.354 -1.535,-6.015 h -0.492 c -0.45,1.433 -0.695,2.21 -0.737,2.333 0,0.163 0.052,0.48 0.155,0.951 0.101,0.471 0.152,0.787 0.152,0.951 0,0.121 -0.041,0.43 -0.124,0.921 l -0.184,1.474 c -0.083,0.08 -0.184,0.121 -0.306,0.121 -1.229,0 -2.048,-0.306 -2.455,-0.919 -0.411,-0.614 -0.575,-1.476 -0.493,-2.58 l 0.493,-7.366 c 0,-0.121 0.038,-0.285 0.121,-0.492 0.082,-0.203 0.123,-0.348 0.123,-0.428 0,-0.328 -0.348,-0.984 -1.043,-1.967 -0.123,-0.039 -0.758,-0.184 -1.904,-0.43 -0.695,-0.163 -2.067,-0.45 -4.112,-0.858 -2.824,-0.53 -4.237,-2.803 -4.237,-6.815 0,-5.977 2.456,-10.948 7.367,-14.918 0.204,1.105 0.553,2.576 1.044,4.418 0.369,0.086 1.168,0.27 2.396,0.555 0.247,0.081 1.494,0.533 3.745,1.352 -1.146,-0.695 -2.64,-1.82 -4.48,-3.377 -0.697,-0.818 -1.046,-2.189 -1.046,-4.113 0,-0.45 0.778,-0.981 2.335,-1.599 1.391,-0.571 2.434,-0.897 3.131,-0.979 2.209,-0.286 3.907,-0.432 5.096,-0.432 5.115,0 9.249,1.312 12.4,3.932 -1.022,1.188 -2.783,2.453 -5.279,3.807 0.982,0.041 2.415,-0.348 4.299,-1.168 1.882,-0.816 2.68,-1.227 2.394,-1.227 0.327,0 0.982,0.654 1.965,1.963 0.735,0.982 1.329,1.865 1.78,2.641 1.31,2.333 2.19,4.852 2.642,7.553 0,0.941 0.019,1.616 0.061,2.024 v 0.489 h -0.005 z m -23.516,1.108 c 0,-1.761 -0.767,-3.429 -2.302,-5.006 -1.535,-1.576 -3.184,-2.363 -4.943,-2.363 -1.555,0 -2.925,0.66 -4.113,1.978 -1.187,1.319 -1.779,2.782 -1.779,4.389 0,1.401 0.674,2.31 2.026,2.72 0.86,0.248 2.065,0.392 3.621,0.434 h 3.376 c 2.742,0.036 4.114,-0.682 4.114,-2.152 z m 6.693,7.612 v -1.901 c -0.286,-0.533 -0.573,-1.087 -0.858,-1.66 -0.246,-0.817 -0.697,-1.963 -1.352,-3.439 l -0.676,7.186 c 0,0.574 -0.121,0.859 -0.368,0.859 -0.163,0 -0.287,-0.04 -0.369,-0.122 -0.286,-4.339 -0.429,-6.224 -0.429,-5.647 v -2.148 c -0.083,-0.126 -0.185,-0.188 -0.308,-0.188 -1.391,1.437 -2.086,3.748 -2.086,6.938 0,1.761 0.162,2.845 0.489,3.257 0.328,-0.083 0.695,-0.226 1.106,-0.431 0.163,-0.083 0.634,-0.123 1.412,-0.123 0.775,0 1.719,0.246 2.823,0.735 0.411,-0.001 0.616,-1.105 0.616,-3.316 z m 13.876,-8.556 c 0,-1.646 -0.614,-3.118 -1.843,-4.418 -1.229,-1.297 -2.64,-1.945 -4.234,-1.945 -1.72,0 -3.328,0.787 -4.82,2.363 -1.495,1.574 -2.242,3.223 -2.242,4.942 0,1.433 0.697,2.148 2.088,2.148 h 7.06 c 2.66,-0.04 3.991,-1.068 3.991,-3.09 z"
   id="path53" />
<path
   fill="#0d0f0f"
   d="m -855.481,-142.385 c 0,0.758 -0.293,1.437 -0.879,2.043 -0.586,0.604 -1.258,0.905 -2.016,0.905 -1.207,0 -2.098,-0.566 -2.663,-1.701 l -2.667,-0.112 c -0.567,0 -1.684,0.246 -3.345,0.737 -1.777,0.49 -2.798,0.888 -3.064,1.189 -0.414,0.454 -0.755,1.514 -1.02,3.178 -0.228,1.36 -0.339,2.363 -0.339,3.006 0,1.02 0.16,1.768 0.48,2.24 0.321,0.473 0.984,0.869 1.984,1.189 1,0.318 1.616,0.502 1.844,0.539 0.151,0 0.396,-0.018 0.737,-0.057 h 0.681 c 0.491,0 1.001,0.076 1.532,0.227 0.755,0.227 1.077,0.527 0.965,0.907 -0.531,-0.074 -1.456,0.038 -2.778,0.34 l 1.586,0.795 c 0,0.454 -0.643,0.679 -1.928,0.679 -0.342,0 -0.806,-0.072 -1.39,-0.225 -0.588,-0.154 -0.976,-0.229 -1.163,-0.229 h -0.737 c -0.038,0.379 -0.15,0.943 -0.34,1.701 -0.646,-0.037 -1.399,-0.416 -2.27,-1.133 -0.87,-0.72 -1.418,-1.079 -1.643,-1.079 -0.228,0 -0.551,0.359 -0.965,1.079 -0.417,0.717 -0.624,1.207 -0.624,1.475 -0.491,-0.268 -0.906,-0.758 -1.249,-1.475 -0.151,-0.494 -0.321,-0.986 -0.509,-1.479 -0.379,0.039 -1.077,0.836 -2.099,2.385 h -0.284 c -0.077,-0.113 -0.36,-0.906 -0.852,-2.385 -1.172,-0.375 -2.268,-0.563 -3.288,-0.563 -0.491,0 -1.249,0.112 -2.27,0.341 l -1.587,-0.113 c 0.226,-0.228 0.888,-0.662 1.984,-1.305 1.284,-0.758 2.269,-1.137 2.949,-1.137 0.112,0 0.264,0.021 0.454,0.059 0.188,0.039 0.341,0.058 0.454,0.058 0.262,0 0.689,-0.142 1.275,-0.427 0.586,-0.283 0.927,-0.539 1.019,-0.766 0.098,-0.229 0.145,-0.813 0.145,-1.759 0,-2.153 -0.568,-3.763 -1.703,-4.819 -0.983,-0.945 -2.608,-1.625 -4.877,-2.043 -0.604,2.154 -2.307,3.234 -5.103,3.234 -0.909,0 -1.816,-0.549 -2.723,-1.646 -0.907,-1.098 -1.361,-2.099 -1.361,-3.007 0,-1.399 0.586,-2.551 1.758,-3.459 -0.944,-0.981 -1.418,-1.983 -1.418,-3.006 0,-0.944 0.292,-1.776 0.879,-2.496 0.586,-0.716 1.353,-1.133 2.297,-1.248 -0.074,-1.208 0.321,-2.042 1.19,-2.495 -0.415,-0.414 -0.622,-1.15 -0.622,-2.211 0,-1.246 0.414,-2.287 1.247,-3.119 0.83,-0.83 1.871,-1.248 3.117,-1.248 1.363,0 2.479,0.475 3.348,1.418 1.098,-3.742 3.459,-5.613 7.089,-5.613 1.889,0 3.554,0.756 4.99,2.27 0.53,0.565 0.793,0.868 0.793,0.905 -0.452,0 -0.225,-0.086 0.681,-0.254 0.909,-0.171 1.568,-0.257 1.986,-0.257 1.474,0 2.778,0.55 3.915,1.646 0.982,0.984 1.663,2.229 2.042,3.742 0.263,0.039 0.679,0.151 1.245,0.341 0.832,0.417 1.249,1.135 1.249,2.155 0,0.188 -0.152,0.549 -0.454,1.079 2.419,1.361 3.63,3.251 3.63,5.67 0,0.681 -0.266,1.627 -0.793,2.836 0.986,0.569 1.478,1.401 1.478,2.498 z m -23.368,2.495 v -0.736 c 0,-0.869 -0.424,-1.664 -1.275,-2.382 -0.851,-0.72 -1.71,-1.077 -2.58,-1.077 -1.06,0 -2.042,0.246 -2.949,0.734 2.004,-0.11 4.271,1.041 6.804,3.461 z m -1.02,-7.03 c -0.566,-0.646 -1.058,-1.306 -1.474,-1.985 -1.589,0.414 -2.383,0.889 -2.383,1.416 0.453,-0.037 1.116,0.047 1.984,0.256 0.87,0.209 1.496,0.313 1.873,0.313 z m 3.462,-1.761 v -2.495 c -0.909,-0.149 -1.459,-0.226 -1.646,-0.226 v 0.851 z m 7.372,-1.586 c -0.454,-0.189 -1.305,-0.568 -2.554,-1.135 v 4.877 c 1.778,-1.022 2.628,-2.268 2.554,-3.742 z m 3.116,6.692 -1.246,-1.529 c -0.755,0.529 -1.521,1.066 -2.298,1.615 -0.775,0.547 -1.445,1.162 -2.011,1.844 1.699,-0.911 3.554,-1.551 5.555,-1.93 z"
   id="path54" />












































































</svg>
