<?xml version="1.0" encoding="UTF-8" standalone="no"?>
<!-- Generator: Adobe Illustrator 15.0.2, SVG Export Plug-In . SVG Version: 6.00 Build 0)  -->

<svg
   version="1.1"
   id="Layer_1"
   x="0px"
   y="0px"
   width="100"
   height="99.999023"
   viewBox="-945 -210.002 100 99.999021"
   enable-background="new -945 -210.002 1045 730.002"
   xml:space="preserve"
   xmlns="http://www.w3.org/2000/svg"
   xmlns:svg="http://www.w3.org/2000/svg"><defs
   id="defs150" />


































































<g
   id="g48"
   transform="translate(-420,-315.003)">
	<path
   fill="#e49977"
   d="m -439.651,119.637 c 9.052,9.051 14.651,21.551 14.651,35.36 0,27.616 -22.387,50.003 -50,50.003 -13.807,0 -26.305,-5.596 -35.354,-14.646"
   id="path47" />
	<path
   fill="#bab1ab"
   d="M -510.354,190.354 C -519.403,181.307 -525,168.805 -525,154.998 c 0,-27.613 22.387,-49.997 50,-49.997 13.802,0 26.301,5.594 35.349,14.637"
   id="path48" />
</g>
<path
   fill="#0d0f0f"
   d="m -856.7,-135.564 c -1.718,4.1 -5.13,6.146 -10.24,6.146 -0.937,0 -1.952,0.115 -3.044,0.35 -1.639,0.353 -2.458,0.84 -2.458,1.465 0,0.195 0.136,0.418 0.41,0.674 0.271,0.253 0.508,0.381 0.703,0.381 -0.977,0 -0.314,0.029 1.987,0.085 2.303,0.06 3.747,0.089 4.333,0.089 -3.394,1.989 -9.07,2.906 -17.029,2.75 -2.614,-0.037 -4.857,-1.188 -6.729,-3.451 -1.835,-2.146 -2.751,-4.545 -2.751,-7.197 0,-2.81 0.946,-5.198 2.839,-7.17 1.89,-1.968 4.242,-2.953 7.051,-2.953 0.623,0 1.453,0.137 2.486,0.408 1.034,0.273 1.727,0.41 2.077,0.41 1.444,0 3.239,-0.597 5.385,-1.785 2.146,-1.189 3.16,-1.785 3.043,-1.785 -0.391,4.097 -1.756,6.849 -4.097,8.25 -1.678,0.978 -2.516,1.934 -2.516,2.867 0,0.586 0.35,1.055 1.052,1.406 0.546,0.271 1.151,0.408 1.815,0.408 1.014,0 2.008,-0.623 2.984,-1.872 0.974,-1.247 1.403,-2.379 1.286,-3.394 -0.116,-1.172 -0.037,-2.576 0.235,-4.213 0.077,-0.47 0.361,-1.045 0.848,-1.727 0.488,-0.684 0.928,-1.104 1.317,-1.262 0,0.354 -0.127,0.939 -0.38,1.756 -0.254,0.82 -0.38,1.427 -0.38,1.814 0,0.86 0.234,1.523 0.703,1.99 0.701,-0.271 1.324,-1.15 1.872,-2.634 0.468,-1.13 0.74,-2.224 0.82,-3.274 -1.64,-0.078 -3.211,-0.82 -4.711,-2.227 -1.501,-1.404 -2.252,-2.925 -2.252,-4.563 0,-0.271 0.037,-0.547 0.117,-0.819 0.232,0.353 0.583,0.899 1.053,1.64 0.662,0.975 1.17,1.463 1.521,1.463 0.468,0 0.702,-0.488 0.702,-1.463 0,-1.249 -0.332,-2.38 -0.995,-3.395 -0.743,-1.211 -1.699,-1.814 -2.867,-1.814 -0.548,0 -1.366,0.292 -2.458,0.878 -1.093,0.584 -2.088,0.878 -2.983,0.878 -0.273,0 -1.484,-0.353 -3.629,-1.054 3.783,-0.625 5.676,-1.19 5.676,-1.699 0,-1.325 -2.594,-2.223 -7.783,-2.688 -0.508,-0.039 -1.443,-0.117 -2.809,-0.235 0.155,-0.194 1.268,-0.407 3.336,-0.644 1.755,-0.192 2.983,-0.293 3.685,-0.293 9.285,0 15.175,4.506 17.673,13.521 0.431,-0.358 0.646,-0.95 0.646,-1.78 0,-1.068 -0.313,-2.412 -0.938,-4.033 -0.235,-0.635 -0.607,-1.584 -1.113,-2.849 3.198,4.075 4.8,7.938 4.8,11.583 0,1.922 -0.451,3.667 -1.348,5.232 -0.583,1.059 -1.678,2.41 -3.276,4.059 -1.6,1.645 -2.691,2.919 -3.277,3.821 2.146,-0.586 3.551,-1.035 4.214,-1.347 1.481,-0.664 2.828,-1.66 4.037,-2.985 0,0.51 -0.215,1.272 -0.643,2.281 z m -25.514,-22.996 c 0,0.701 -0.391,1.152 -1.17,1.348 l -1.521,0.232 c -0.547,0.272 -1.347,1.348 -2.398,3.219 -0.119,-0.584 -0.293,-1.403 -0.528,-2.457 -0.351,0.037 -0.935,0.352 -1.755,0.936 -0.351,0.273 -0.917,0.684 -1.699,1.229 0.235,-1.403 1.017,-2.826 2.342,-4.271 1.404,-1.598 2.77,-2.396 4.096,-2.396 1.755,-0.002 2.633,0.719 2.633,2.16 z m 10.182,5.385 c 0,0.662 -0.361,1.22 -1.083,1.668 -0.722,0.447 -1.434,0.673 -2.135,0.673 -0.938,0 -1.777,-0.524 -2.517,-1.581 -0.898,-1.285 -1.814,-2.125 -2.75,-2.516 0.194,-0.195 0.429,-0.293 0.704,-0.293 0.349,0 0.944,0.271 1.783,0.818 0.837,0.549 1.375,0.82 1.61,0.82 0.195,0 0.516,-0.271 0.964,-0.82 0.448,-0.547 0.946,-0.818 1.493,-0.818 1.288,0 1.931,0.684 1.931,2.049 z"
   id="path49" />
<path
   fill="#0d0f0f"
   d="m -891.743,-181.892 c 0,2.701 -0.982,4.543 -2.948,5.525 -0.574,0.287 -2.373,0.678 -5.403,1.166 -1.964,0.329 -2.946,1.088 -2.946,2.271 v 4.973 c 0,0.209 0.063,0.842 0.184,1.906 l 0.185,1.965 c 0,0.613 -0.144,1.617 -0.431,3.008 -0.777,0.163 -1.678,0.348 -2.7,0.555 -0.329,-1.229 -0.491,-2.069 -0.491,-2.52 0,-0.203 0.05,-0.512 0.152,-0.921 0.102,-0.408 0.154,-0.716 0.154,-0.921 0,-0.284 -0.253,-1.084 -0.762,-2.393 h -0.953 c -0.126,0.203 -0.167,0.469 -0.127,0.795 0.165,0.696 0.225,1.289 0.185,1.781 -0.697,0.491 -1.657,1.146 -2.885,1.965 -0.289,-0.082 -0.389,-0.123 -0.308,-0.123 v -4.359 c -0.082,-0.202 -0.286,-0.285 -0.614,-0.245 h -0.737 l -0.737,5.771 c -0.573,0.041 -1.268,0.041 -2.086,0 -0.287,-1.35 -0.799,-3.354 -1.534,-6.015 h -0.493 c -0.45,1.433 -0.696,2.21 -0.737,2.333 0,0.163 0.052,0.48 0.155,0.951 0.101,0.471 0.152,0.787 0.152,0.951 0,0.121 -0.042,0.43 -0.125,0.921 l -0.183,1.474 c -0.083,0.08 -0.184,0.121 -0.307,0.121 -1.228,0 -2.048,-0.306 -2.455,-0.919 -0.411,-0.614 -0.576,-1.476 -0.493,-2.58 l 0.493,-7.366 c 0,-0.121 0.039,-0.285 0.121,-0.492 0.082,-0.203 0.123,-0.348 0.123,-0.428 0,-0.328 -0.348,-0.984 -1.043,-1.967 -0.123,-0.039 -0.758,-0.184 -1.904,-0.43 -0.696,-0.163 -2.067,-0.45 -4.112,-0.858 -2.824,-0.53 -4.237,-2.803 -4.237,-6.815 0,-5.977 2.456,-10.948 7.367,-14.918 0.204,1.105 0.553,2.576 1.044,4.418 0.368,0.086 1.167,0.27 2.394,0.555 0.247,0.081 1.495,0.533 3.745,1.352 -1.146,-0.695 -2.64,-1.82 -4.48,-3.377 -0.697,-0.818 -1.046,-2.189 -1.046,-4.113 0,-0.45 0.778,-0.981 2.335,-1.599 1.391,-0.571 2.434,-0.897 3.131,-0.979 2.209,-0.286 3.908,-0.432 5.096,-0.432 5.115,0 9.249,1.312 12.401,3.932 -1.022,1.188 -2.783,2.453 -5.279,3.807 0.982,0.041 2.415,-0.348 4.298,-1.168 1.882,-0.816 2.68,-1.227 2.394,-1.227 0.327,0 0.982,0.654 1.965,1.963 0.735,0.982 1.329,1.865 1.78,2.641 1.31,2.333 2.19,4.852 2.641,7.553 0,0.941 0.02,1.616 0.061,2.024 z m -23.516,1.108 c 0,-1.761 -0.767,-3.429 -2.301,-5.006 -1.536,-1.576 -3.184,-2.363 -4.943,-2.363 -1.555,0 -2.925,0.66 -4.114,1.978 -1.187,1.319 -1.78,2.782 -1.78,4.389 0,1.401 0.675,2.31 2.027,2.72 0.859,0.248 2.065,0.392 3.621,0.434 h 3.376 c 2.742,0.036 4.114,-0.682 4.114,-2.152 z m 6.692,7.612 v -1.901 c -0.286,-0.533 -0.573,-1.087 -0.858,-1.66 -0.246,-0.817 -0.697,-1.963 -1.351,-3.439 l -0.676,7.186 c 0,0.574 -0.121,0.859 -0.368,0.859 -0.163,0 -0.287,-0.04 -0.369,-0.122 -0.287,-4.339 -0.429,-6.224 -0.429,-5.647 v -2.148 c -0.083,-0.126 -0.185,-0.188 -0.308,-0.188 -1.391,1.437 -2.086,3.748 -2.086,6.938 0,1.761 0.163,2.845 0.49,3.257 0.329,-0.083 0.695,-0.226 1.107,-0.431 0.163,-0.083 0.633,-0.123 1.412,-0.123 0.775,0 1.719,0.246 2.823,0.735 0.409,-0.001 0.613,-1.105 0.613,-3.316 z m 13.876,-8.556 c 0,-1.646 -0.614,-3.118 -1.842,-4.418 -1.229,-1.297 -2.64,-1.945 -4.235,-1.945 -1.719,0 -3.328,0.787 -4.821,2.363 -1.494,1.574 -2.242,3.223 -2.242,4.942 0,1.433 0.697,2.148 2.088,2.148 h 7.06 c 2.662,-0.04 3.992,-1.068 3.992,-3.09 z"
   id="path50" />















































































</svg>
