<?xml version="1.0" encoding="UTF-8" standalone="no"?>
<!-- Generator: Adobe Illustrator 15.0.2, SVG Export Plug-In . SVG Version: 6.00 Build 0)  -->

<svg
   version="1.1"
   id="Layer_1"
   x="0px"
   y="0px"
   width="100"
   height="100"
   viewBox="-945 -210.002 100 99.999998"
   enable-background="new -945 -210.002 1045 730.002"
   xml:space="preserve"
   xmlns="http://www.w3.org/2000/svg"
   xmlns:svg="http://www.w3.org/2000/svg"><defs
   id="defs150" />

















































































<g
   id="g68"
   transform="translate(-945,-315.00202)">
	<path
   fill="#c1d7e9"
   d="M 85.35,119.637 C 94.403,128.688 100,141.188 100,154.997 100,182.613 77.613,205 50,205 36.193,205 23.695,199.404 14.646,190.354"
   id="path67" />
	<path
   fill="#a3c095"
   d="M 14.646,190.354 C 5.596,181.307 0,168.805 0,154.997 0,127.384 22.387,105 50,105 c 13.803,0 26.301,5.593 35.35,14.637"
   id="path68" />
</g>
<path
   fill="#0d0f0f"
   d="m -868.277,-126.32702 c -2.693,2.739 -6.008,4.109 -9.945,4.109 -4.424,0 -7.93,-1.515 -10.524,-4.541 -2.452,-2.884 -3.678,-6.558 -3.678,-11.028 0,-4.804 2.091,-10.281 6.272,-16.434 3.41,-5.047 7.424,-9.467 12.036,-13.264 -0.675,3.076 -1.009,5.262 -1.009,6.561 0,2.98 0.936,5.886 2.811,8.721 2.307,3.365 4.062,5.864 5.262,7.496 1.873,2.835 2.813,5.6 2.813,8.289 -0.002,3.99 -1.349,7.354 -4.038,10.091 z m -0.075,-15.388 c -0.719,-1.609 -1.561,-2.68 -2.521,-3.208 0.146,0.288 0.217,0.698 0.217,1.226 0,1.01 -0.287,2.453 -0.865,4.324 l -0.938,2.885 c 0,1.68 0.84,2.522 2.521,2.522 1.777,0 2.668,-1.177 2.668,-3.532 0,-1.201 -0.36,-2.608 -1.082,-4.217 z"
   id="path69" />
<path
   fill="#0d0f0f"
   d="m -893.359,-175.71702 c 0,0.757 -0.293,1.438 -0.879,2.043 -0.587,0.604 -1.259,0.904 -2.017,0.904 -1.207,0 -2.098,-0.565 -2.663,-1.7 l -2.666,-0.112 c -0.568,0 -1.685,0.245 -3.346,0.736 -1.777,0.49 -2.798,0.888 -3.064,1.191 -0.414,0.453 -0.755,1.514 -1.02,3.176 -0.228,1.361 -0.339,2.363 -0.339,3.008 0,1.018 0.16,1.767 0.48,2.24 0.321,0.472 0.984,0.867 1.984,1.188 1.001,0.319 1.616,0.502 1.844,0.538 0.151,0 0.396,-0.018 0.737,-0.057 h 0.681 c 0.491,0 1.001,0.078 1.532,0.228 0.755,0.226 1.077,0.528 0.965,0.906 -0.531,-0.073 -1.456,0.038 -2.778,0.341 l 1.586,0.795 c 0,0.454 -0.643,0.68 -1.928,0.68 -0.342,0 -0.805,-0.074 -1.39,-0.226 -0.587,-0.153 -0.975,-0.229 -1.163,-0.229 h -0.736 c -0.039,0.379 -0.151,0.944 -0.341,1.703 -0.645,-0.039 -1.399,-0.418 -2.27,-1.135 -0.87,-0.719 -1.418,-1.078 -1.643,-1.078 -0.228,0 -0.551,0.359 -0.965,1.078 -0.417,0.717 -0.624,1.208 -0.624,1.475 -0.491,-0.267 -0.905,-0.758 -1.249,-1.475 -0.151,-0.494 -0.321,-0.984 -0.509,-1.477 -0.379,0.037 -1.077,0.834 -2.099,2.384 h -0.284 c -0.076,-0.114 -0.36,-0.907 -0.852,-2.384 -1.172,-0.377 -2.268,-0.565 -3.288,-0.565 -0.491,0 -1.249,0.112 -2.27,0.341 l -1.586,-0.111 c 0.225,-0.229 0.888,-0.664 1.983,-1.307 1.284,-0.758 2.269,-1.136 2.949,-1.136 0.112,0 0.264,0.021 0.454,0.058 0.188,0.041 0.341,0.059 0.454,0.059 0.263,0 0.689,-0.143 1.275,-0.428 0.586,-0.283 0.927,-0.537 1.019,-0.765 0.098,-0.229 0.146,-0.813 0.146,-1.759 0,-2.154 -0.568,-3.762 -1.703,-4.821 -0.983,-0.942 -2.608,-1.624 -4.877,-2.042 -0.604,2.154 -2.307,3.234 -5.103,3.234 -0.909,0 -1.815,-0.547 -2.723,-1.645 -0.905,-1.1 -1.361,-2.1 -1.361,-3.008 0,-1.4 0.586,-2.551 1.758,-3.46 -0.944,-0.981 -1.418,-1.983 -1.418,-3.005 0,-0.945 0.292,-1.777 0.879,-2.496 0.586,-0.716 1.353,-1.134 2.297,-1.249 -0.074,-1.207 0.321,-2.042 1.191,-2.494 -0.416,-0.415 -0.623,-1.151 -0.623,-2.211 0,-1.247 0.414,-2.286 1.247,-3.118 0.83,-0.832 1.872,-1.25 3.117,-1.25 1.363,0 2.479,0.475 3.348,1.418 1.098,-3.742 3.459,-5.613 7.089,-5.613 1.89,0 3.554,0.757 4.99,2.271 0.53,0.563 0.793,0.868 0.793,0.905 -0.452,0 -0.225,-0.086 0.681,-0.256 0.909,-0.17 1.568,-0.256 1.986,-0.256 1.474,0 2.778,0.55 3.915,1.646 0.982,0.984 1.663,2.229 2.042,3.742 0.263,0.038 0.679,0.15 1.246,0.34 0.831,0.418 1.248,1.135 1.248,2.156 0,0.189 -0.152,0.549 -0.454,1.078 2.419,1.361 3.63,3.25 3.63,5.67 0,0.681 -0.266,1.628 -0.793,2.837 0.985,0.569 1.478,1.402 1.478,2.499 z m -23.368,2.496 v -0.737 c 0,-0.87 -0.425,-1.664 -1.276,-2.382 -0.851,-0.721 -1.71,-1.077 -2.58,-1.077 -1.06,0 -2.042,0.245 -2.949,0.735 2.004,-0.111 4.272,1.039 6.805,3.461 z m -1.021,-7.031 c -0.566,-0.646 -1.058,-1.307 -1.474,-1.986 -1.589,0.416 -2.382,0.889 -2.382,1.416 0.452,-0.037 1.115,0.049 1.983,0.256 0.87,0.21 1.496,0.314 1.873,0.314 z m 3.463,-1.76 v -2.496 c -0.91,-0.15 -1.459,-0.227 -1.646,-0.227 v 0.851 z m 7.371,-1.588 c -0.454,-0.189 -1.305,-0.567 -2.554,-1.135 v 4.877 c 1.779,-1.022 2.628,-2.268 2.554,-3.742 z m 3.116,6.692 -1.246,-1.529 c -0.755,0.529 -1.521,1.067 -2.298,1.615 -0.775,0.547 -1.445,1.163 -2.011,1.844 1.699,-0.911 3.554,-1.551 5.555,-1.93 z"
   id="path70" />
































































</svg>
