<?xml version="1.0" encoding="UTF-8" standalone="no"?>
<!-- Generator: Adobe Illustrator 15.0.2, SVG Export Plug-In . SVG Version: 6.00 Build 0)  -->

<svg
   version="1.1"
   id="Layer_1"
   x="0px"
   y="0px"
   width="100"
   height="100"
   viewBox="-945 -210.002 100 99.999998"
   enable-background="new -945 -210.002 1045 730.002"
   xml:space="preserve"
   xmlns="http://www.w3.org/2000/svg"
   xmlns:svg="http://www.w3.org/2000/svg"><defs
   id="defs150" />














































































<g
   id="g64"
   transform="translate(-840,-315.00202)">
	<path
   fill="#f8f6d8"
   d="M -19.651,119.637 C -10.599,128.688 -5,141.188 -5,154.997 -5,182.613 -27.387,205 -55,205 c -13.807,0 -26.305,-5.596 -35.354,-14.646"
   id="path63" />
	<path
   fill="#a3c095"
   d="M -90.354,190.354 C -99.404,181.307 -105,168.805 -105,154.998 -105,127.384 -82.613,105 -55,105 c 13.802,0 26.301,5.593 35.349,14.637"
   id="path64" />
</g>
<path
   fill="#0d0f0f"
   d="m -857,-136.89102 c -2.436,-2.264 -4.054,-3.491 -4.848,-3.682 -0.576,-0.139 -1.135,0.198 -1.672,1.004 -0.537,0.809 -1.291,1.094 -2.268,0.86 -0.396,-0.095 -1.175,-0.435 -2.334,-1.019 -0.938,0.886 -1.441,1.472 -1.511,1.759 -0.095,0.399 0.089,0.938 0.551,1.622 0.46,0.683 0.894,1.072 1.301,1.171 0.257,0.062 0.621,0.091 1.09,0.089 0.468,-0.001 0.777,0.016 0.927,0.051 0.443,0.104 0.469,0.971 0.078,2.596 -0.37,1.554 -1.302,3.854 -2.793,6.893 -0.059,-3.909 -0.61,-5.99 -1.656,-6.238 -0.145,-0.035 -0.469,0.004 -0.972,0.111 -0.505,0.107 -0.864,0.137 -1.08,0.084 -1.048,-0.25 -1.758,-1.434 -2.131,-3.545 -1.723,-0.146 -2.757,0.506 -3.103,1.949 -0.174,0.726 0.023,1.383 0.589,1.975 0.563,0.592 0.823,0.98 0.782,1.16 -0.233,0.977 -2.021,2.134 -5.356,3.474 -1.776,0.722 -3.007,1.228 -3.688,1.522 0.659,-0.528 1.369,-1.256 2.127,-2.182 0.862,-1.057 1.371,-1.906 1.528,-2.559 0.086,-0.359 -0.209,-0.967 -0.884,-1.814 -0.676,-0.849 -0.926,-1.634 -0.753,-2.355 0.146,-0.614 0.543,-1.321 1.194,-2.12 -0.341,-0.653 -0.835,-1.06 -1.485,-1.215 -1.444,-0.349 -2.279,-0.05 -2.504,0.89 0.155,-0.65 0.038,-0.162 -0.35,1.463 -0.25,1.2 -1.296,1.579 -3.138,1.141 -1.409,-0.338 -3.696,-1.229 -6.864,-2.674 3.981,-0.039 6.118,-0.674 6.411,-1.903 -0.032,0.146 -0.003,-0.306 0.097,-1.353 0.122,-1.152 1.16,-1.975 3.108,-2.463 0.072,-1.738 -0.594,-2.777 -2.004,-3.113 -0.216,-0.053 -0.705,0.231 -1.463,0.851 -0.761,0.621 -1.393,0.872 -1.898,0.75 -0.867,-0.205 -1.763,-1.413 -2.684,-3.62 -0.427,-1.095 -1.088,-2.723 -1.983,-4.886 0.727,0.633 1.453,1.267 2.182,1.896 0.963,0.768 1.77,1.227 2.419,1.383 0.506,0.121 1.108,-0.203 1.808,-0.972 0.699,-0.769 1.446,-1.058 2.24,-0.866 0.111,0.026 0.78,0.414 2.013,1.168 0.937,-0.883 1.466,-1.576 1.588,-2.082 0.102,-0.435 -0.04,-0.994 -0.431,-1.679 -0.39,-0.687 -0.802,-1.079 -1.235,-1.185 -0.181,-0.045 -0.473,-0.057 -0.878,-0.038 -0.405,0.019 -0.698,0.005 -0.879,-0.038 -0.649,-0.157 -0.781,-1.045 -0.392,-2.671 0.102,-0.435 1.11,-2.81 3.022,-7.124 -0.166,0.531 -0.173,1.602 -0.021,3.203 0.181,1.953 0.687,3.025 1.518,3.228 0.144,0.032 0.459,-0.007 0.946,-0.118 0.485,-0.113 0.852,-0.14 1.104,-0.08 0.83,0.199 1.404,0.834 1.723,1.902 l 0.463,1.655 c 0.758,0.183 1.455,0.063 2.09,-0.357 0.636,-0.422 1.046,-1.011 1.227,-1.769 0.189,-0.795 0,-1.479 -0.568,-2.057 -0.569,-0.574 -0.829,-0.972 -0.775,-1.188 0.181,-0.758 1.68,-1.755 4.495,-2.99 2.26,-0.986 3.709,-1.537 4.349,-1.652 -2.054,1.726 -3.199,3.071 -3.432,4.049 -0.121,0.506 0.055,1.121 0.531,1.847 0.595,0.867 0.912,1.459 0.95,1.772 0.161,0.916 -0.146,2.045 -0.925,3.389 0.811,0.92 1.47,1.438 1.977,1.561 1.045,0.25 1.699,-0.166 1.958,-1.25 0.026,-0.109 0.063,-0.462 0.112,-1.062 0.046,-0.599 0.098,-0.931 0.151,-0.995 0.266,-0.471 1.319,-0.486 3.161,-0.045 1.156,0.275 3.479,1.175 6.973,2.699 -0.847,0.025 -2.116,0.064 -3.809,0.117 -1.55,0.09 -2.389,0.404 -2.519,0.945 -0.06,0.254 -0.074,0.708 -0.04,1.364 0.034,0.657 0.017,1.132 -0.053,1.419 -0.12,0.507 -0.559,0.896 -1.312,1.175 l -2.155,0.861 c 0.245,0.897 0.42,1.437 0.531,1.616 0.259,0.518 0.692,0.854 1.306,1 0.434,0.104 0.922,-0.182 1.465,-0.854 0.542,-0.672 1.212,-0.913 2.007,-0.722 0.975,0.231 1.861,1.397 2.657,3.498 0.446,1.179 1.144,2.968 2.097,5.373 z m -11.274,-6.019 c 0.552,-2.313 0.184,-4.521 -1.108,-6.625 -1.292,-2.104 -3.094,-3.433 -5.404,-3.984 -2.348,-0.561 -4.573,-0.205 -6.671,1.07 -2.099,1.27 -3.448,3.077 -4.046,5.415 -0.59,2.302 -0.21,4.505 1.141,6.604 1.35,2.097 3.18,3.425 5.493,3.978 2.454,0.587 4.697,0.272 6.725,-0.94 2.026,-1.214 3.316,-3.055 3.87,-5.518 z m -0.815,-0.196 c -0.526,2.203 -1.703,3.851 -3.53,4.939 -1.826,1.09 -3.843,1.373 -6.044,0.846 -2.131,-0.512 -3.777,-1.687 -4.94,-3.533 -1.163,-1.842 -1.489,-3.828 -0.979,-5.959 0.503,-2.096 1.698,-3.709 3.592,-4.842 1.896,-1.131 3.889,-1.445 5.984,-0.943 2.094,0.5 3.727,1.691 4.898,3.576 1.171,1.887 1.512,3.858 1.019,5.916 z"
   id="path65" />
<path
   fill="#0d0f0f"
   d="m -893.36,-175.68802 c 0,0.758 -0.293,1.438 -0.879,2.043 -0.586,0.604 -1.258,0.908 -2.016,0.908 -1.207,0 -2.098,-0.567 -2.663,-1.701 l -2.666,-0.115 c -0.568,0 -1.685,0.246 -3.346,0.738 -1.777,0.49 -2.798,0.89 -3.064,1.19 -0.414,0.452 -0.755,1.513 -1.02,3.175 -0.228,1.361 -0.339,2.364 -0.339,3.008 0,1.021 0.16,1.769 0.48,2.239 0.321,0.474 0.984,0.87 1.984,1.191 1.001,0.319 1.616,0.501 1.844,0.536 0.151,0 0.396,-0.018 0.737,-0.057 h 0.681 c 0.491,0 1.001,0.077 1.532,0.229 0.755,0.229 1.077,0.529 0.965,0.908 -0.531,-0.076 -1.456,0.037 -2.778,0.34 l 1.586,0.794 c 0,0.454 -0.643,0.681 -1.928,0.681 -0.342,0 -0.805,-0.076 -1.39,-0.227 -0.587,-0.152 -0.975,-0.227 -1.163,-0.227 h -0.736 c -0.039,0.377 -0.151,0.943 -0.341,1.7 -0.645,-0.039 -1.399,-0.416 -2.27,-1.136 -0.87,-0.717 -1.418,-1.077 -1.643,-1.077 -0.228,0 -0.551,0.36 -0.965,1.077 -0.417,0.72 -0.624,1.211 -0.624,1.476 -0.491,-0.265 -0.905,-0.756 -1.249,-1.476 -0.151,-0.491 -0.321,-0.982 -0.509,-1.475 -0.379,0.039 -1.077,0.832 -2.099,2.383 h -0.284 c -0.076,-0.114 -0.36,-0.908 -0.852,-2.383 -1.172,-0.377 -2.268,-0.566 -3.288,-0.566 -0.491,0 -1.249,0.115 -2.27,0.34 l -1.586,-0.111 c 0.225,-0.229 0.888,-0.662 1.983,-1.305 1.284,-0.756 2.269,-1.135 2.949,-1.135 0.112,0 0.264,0.02 0.454,0.057 0.188,0.038 0.341,0.057 0.454,0.057 0.263,0 0.689,-0.142 1.275,-0.427 0.586,-0.28 0.927,-0.536 1.019,-0.764 0.098,-0.228 0.145,-0.813 0.145,-1.761 0,-2.153 -0.568,-3.76 -1.703,-4.819 -0.983,-0.944 -2.608,-1.625 -4.877,-2.04 -0.604,2.154 -2.307,3.232 -5.103,3.232 -0.909,0 -1.815,-0.549 -2.723,-1.646 -0.905,-1.096 -1.361,-2.098 -1.361,-3.005 0,-1.399 0.586,-2.554 1.758,-3.462 -0.944,-0.98 -1.418,-1.982 -1.418,-3.004 0,-0.947 0.292,-1.777 0.879,-2.498 0.586,-0.717 1.353,-1.133 2.297,-1.245 -0.074,-1.211 0.321,-2.042 1.191,-2.496 -0.416,-0.416 -0.623,-1.153 -0.623,-2.211 0,-1.247 0.414,-2.288 1.247,-3.119 0.83,-0.833 1.872,-1.25 3.117,-1.25 1.363,0 2.479,0.478 3.348,1.42 1.098,-3.743 3.459,-5.614 7.089,-5.614 1.89,0 3.554,0.756 4.99,2.269 0.53,0.567 0.793,0.87 0.793,0.907 -0.452,0 -0.225,-0.086 0.681,-0.256 0.909,-0.17 1.568,-0.256 1.986,-0.256 1.474,0 2.778,0.549 3.915,1.646 0.982,0.982 1.663,2.229 2.042,3.742 0.263,0.039 0.679,0.152 1.246,0.34 0.831,0.419 1.248,1.135 1.248,2.156 0,0.188 -0.152,0.549 -0.454,1.076 2.419,1.361 3.63,3.252 3.63,5.674 0,0.679 -0.265,1.625 -0.793,2.834 0.986,0.571 1.478,1.405 1.478,2.498 z m -23.367,2.497 v -0.734 c 0,-0.87 -0.425,-1.665 -1.276,-2.383 -0.851,-0.717 -1.71,-1.077 -2.58,-1.077 -1.06,0 -2.042,0.243 -2.949,0.735 2.004,-0.114 4.272,1.041 6.805,3.459 z m -1.021,-7.032 c -0.566,-0.645 -1.058,-1.305 -1.474,-1.985 -1.589,0.417 -2.382,0.89 -2.382,1.417 0.452,-0.035 1.115,0.048 1.983,0.258 0.87,0.207 1.496,0.31 1.873,0.31 z m 3.463,-1.758 v -2.496 c -0.91,-0.149 -1.459,-0.228 -1.646,-0.228 v 0.851 z m 7.371,-1.587 c -0.454,-0.189 -1.305,-0.567 -2.554,-1.135 v 4.877 c 1.779,-1.022 2.628,-2.27 2.554,-3.742 z m 3.116,6.692 -1.246,-1.532 c -0.755,0.53 -1.521,1.067 -2.298,1.617 -0.775,0.549 -1.445,1.162 -2.011,1.842 1.699,-0.908 3.554,-1.549 5.555,-1.927 z"
   id="path66" />



































































</svg>
