<?xml version="1.0" encoding="UTF-8" standalone="no"?>
<!-- Generator: Adobe Illustrator 15.0.2, SVG Export Plug-In . SVG Version: 6.00 Build 0)  -->

<svg
   version="1.1"
   id="Layer_1"
   x="0px"
   y="0px"
   width="100"
   height="100"
   viewBox="-945 -210.002 100 99.999998"
   enable-background="new -945 -210.002 1045 730.002"
   xml:space="preserve"
   xmlns="http://www.w3.org/2000/svg"
   xmlns:svg="http://www.w3.org/2000/svg"><defs
   id="defs150" />














































































































<g
   id="g100"
   transform="translate(-315,-525.00001)">
	<circle
   fill="#cac5c0"
   cx="-580"
   cy="364.99799"
   r="50"
   id="circle99" />
</g>
<path
   fill="#0d0f0f"
   d="m -892.693,-203.75001 v 27.246 c 0,3.26 1.371,4.889 4.117,4.889 h 0.715 v 1.865 h -14.496 v -1.865 h 0.91 c 2.656,0 3.98,-1.629 3.98,-4.889 v -17.873 c 0,-3.297 -1.145,-4.947 -3.434,-4.947 h -1.457 v -1.805 h 0.523 c 2.832,0 5.395,-0.875 7.688,-2.621 z"
   id="path100" />
<path
   fill="#0d0f0f"
   d="m -883.447,-129.49601 -2.504,8.455 h -20.82 v -1.809 c 1.012,-1.127 3.227,-3.4 6.648,-6.822 2.063,-2.063 4.102,-4.238 6.121,-6.531 1.012,-1.129 1.789,-2.102 2.332,-2.918 1.207,-1.746 1.809,-3.535 1.809,-5.363 0,-1.789 -0.555,-3.363 -1.66,-4.723 -1.105,-1.363 -2.531,-2.045 -4.285,-2.045 -3.773,0 -6.727,2.551 -8.863,7.643 l -1.867,-0.701 c 2.527,-7.15 6.508,-10.729 11.953,-10.729 2.684,0 4.965,0.912 6.855,2.738 1.887,1.828 2.828,4.082 2.828,6.768 0,3.422 -1.965,6.766 -5.891,10.029 l -4.082,3.379 c -2.605,2.184 -4.766,4.225 -6.473,6.129 -0.117,0.113 -0.352,0.391 -0.699,0.814 h 10.848 c 1.668,0 2.934,-0.33 3.789,-0.992 0.734,-0.582 1.457,-1.689 2.156,-3.32 h 1.805 z"
   id="path101" />
<g
   id="g102"
   transform="translate(-315,-525.00001)">
	<path
   fill="#0d0f0f"
   d="m -609.268,364.455 v -2.91 h 58.328 v 2.91 z"
   id="path102" />
</g>


































</svg>
