<?xml version="1.0" encoding="UTF-8" standalone="no"?>
<!-- Generator: Adobe Illustrator 15.0.2, SVG Export Plug-In . SVG Version: 6.00 Build 0)  -->

<svg
   version="1.1"
   id="Layer_1"
   x="0px"
   y="0px"
   width="100"
   height="100"
   viewBox="-945 -210.002 100 99.999998"
   enable-background="new -945 -210.002 1045 730.002"
   xml:space="preserve"
   xmlns="http://www.w3.org/2000/svg"
   xmlns:svg="http://www.w3.org/2000/svg"><defs
   id="defs150" />




































































































<g
   id="g92"
   transform="translate(-840,-420.00202)">
	<circle
   fill="#e49977"
   cx="-55"
   cy="260"
   r="50"
   id="circle91" />
</g>





































<path
   fill="#111212"
   d="m -867.438,-160.07702 c 0.058,-5.344 -1.64,-10.739 -4.967,-14.928 -1.608,-1.771 -2.93,-3.787 -4.633,-5.461 -3.754,-3.726 -9.375,-3.974 -13.897,-6.321 -0.263,-2.357 -1.125,-4.715 -0.603,-7.093 0.159,-0.791 0.392,-1.593 -0.029,-2.349 -1.186,-2.732 -0.167,-5.698 -0.378,-8.547 -0.158,-1.488 -0.057,-3.309 -1.474,-4.228 -0.33,3.097 -1.469,5.979 -2.392,8.918 -0.426,2.29 -0.426,4.676 -1.413,6.836 0.626,2.188 -0.614,4.03 -1.956,5.646 -2.966,1.52 -6.496,1.881 -9.077,4.11 -1.841,1.562 -3.828,2.931 -5.888,4.202 -1.545,1.934 -3.256,3.797 -3.944,6.24 -2.762,3.335 -3.088,7.811 -4.654,11.717 -0.029,5.799 1.146,12.043 4.85,16.691 2.65,2.188 4.502,5.131 7.148,7.32 2.54,1.516 5.251,2.762 7.874,4.127 1.71,0.398 3.475,0.594 5.176,1.059 1.38,7.109 2.322,14.391 5.092,21.133 0.919,-2.768 0.808,-5.734 1.601,-8.531 1.118,-4.136 -1.176,-8.441 0.117,-12.501 1.938,-1.733 5.17,-0.608 7.32,-2.095 4.092,-2.523 8.422,-4.98 11.39,-8.84 1.105,-2.219 3.426,-3.877 3.426,-6.539 0.019,-3.585 2.109,-6.942 1.311,-10.566 z m -30.374,21.93 c -2.965,-0.721 -5.727,-2.139 -8.214,-3.871 -2.676,-1.783 -3.674,-5.11 -6.314,-6.934 -2.472,-2.951 -1.937,-6.982 -2.95,-10.476 0.406,-2.438 0.885,-4.856 1.138,-7.325 1.206,-1.956 3.067,-3.516 3.583,-5.87 1.767,-2.532 4.458,-4.284 6.619,-6.479 1.572,-1.813 4.074,-1.049 6.139,-1.119 -0.205,2 -0.368,4.068 0.133,6.041 0.244,1.212 0.791,2.406 0.603,3.676 -0.414,2.699 0.599,5.406 -0.117,8.074 -1.443,5.578 0.131,11.209 0.268,16.832 -0.205,2.491 -0.321,5 -0.888,7.451 z m 22.477,-10.57 c -1.964,1.396 -3.637,3.111 -5.351,4.785 -2.979,2.06 -5.923,4.24 -9.469,5.27 0.32,-2.529 0.632,-5.131 -0.174,-7.607 -1.978,-5.594 0.446,-11.445 0.855,-17.102 -0.361,-3.363 -0.016,-6.951 -1.558,-10.049 -0.202,-2.327 0.804,-4.574 1.486,-6.764 2.342,0.935 4.547,2.197 6.496,3.82 2.354,1.764 5.96,2.908 6.487,6.198 0.269,2.161 2.634,3.468 2.565,5.679 -0.148,5.256 0.577,10.753 -1.337,15.77 z"
   id="path127" />









</svg>
