<?xml version="1.0" encoding="UTF-8" standalone="no"?>
<!-- Generator: Adobe Illustrator 15.0.2, SVG Export Plug-In . SVG Version: 6.00 Build 0)  -->

<svg
   version="1.1"
   id="Layer_1"
   x="0px"
   y="0px"
   width="100"
   height="100"
   viewBox="-945 -210.002 100 99.999998"
   enable-background="new -945 -210.002 1045 730.002"
   xml:space="preserve"
   xmlns="http://www.w3.org/2000/svg"
   xmlns:svg="http://www.w3.org/2000/svg"><defs
   id="defs150" />








































































































<g
   id="g96"
   transform="translate(0,-525.00001)">
	<circle
   fill="#cac5c0"
   cx="-895"
   cy="364.99799"
   r="50"
   id="circle95" />
</g>
<path
   fill="#0d0f0f"
   d="m -859.668,-151.08201 h -36.004 l 13.185,-9.383 c -4.898,-3.887 -10.566,-5.828 -16.984,-5.828 -3.211,0 -5.414,0.613 -6.59,1.836 -1.184,1.227 -1.777,3.445 -1.777,6.654 0,8.873 4.563,18.34 13.691,28.396 l -10.391,10.521 c -12.09,-14.705 -18.129,-27.844 -18.129,-39.424 0,-6.928 2.086,-12.447 6.27,-16.545 4.18,-4.098 9.746,-6.148 16.668,-6.148 8.453,0 17.664,3.215 27.641,9.635 l 7.728,-13.182 z"
   id="path96" />










































</svg>
