<?xml version="1.0" encoding="UTF-8" standalone="no"?>
<!-- Generator: Adobe Illustrator 15.0.2, SVG Export Plug-In . SVG Version: 6.00 Build 0)  -->

<svg
   version="1.1"
   id="Layer_1"
   x="0px"
   y="0px"
   width="100"
   height="100"
   viewBox="-945 -210.002 100 99.999998"
   enable-background="new -945 -210.002 1045 730.002"
   xml:space="preserve"
   xmlns="http://www.w3.org/2000/svg"
   xmlns:svg="http://www.w3.org/2000/svg"><defs
   id="defs150" />















































































































































<g
   id="g135"
   transform="translate(-419.875,-525.07002)">
	<g
   id="g133">
		<circle
   fill="#c9c4be"
   cx="-475.125"
   cy="365.06799"
   r="50"
   id="circle132" />
	</g>
	<g
   id="g134">
		<path
   fill="#0d0f0f"
   d="m -430.349,370.916 -10.57,12.729 -2.59,-2.588 c 1.007,-2.541 1.645,-4.879 1.907,-7.014 0.262,-2.133 0.154,-4.109 -0.324,-5.934 -0.048,-0.238 -0.106,-0.467 -0.18,-0.682 -0.071,-0.219 -0.155,-0.422 -0.252,-0.613 -0.383,-1.148 -0.959,-2.229 -1.727,-3.234 -0.767,-1.01 -1.868,-2.23 -3.306,-3.668 l -7.552,-7.695 -35.094,35.096 c -3.069,3.066 -4.724,5.729 -4.963,7.979 -0.241,2.256 0.863,4.605 3.309,7.051 l 1.007,0.861 -2.733,2.732 -23.012,-23.012 2.732,-2.732 1.15,1.148 c 2.397,2.494 4.722,3.623 6.976,3.381 2.253,-0.238 4.891,-1.871 7.911,-4.891 l 35.165,-35.166 -7.838,-7.838 c -2.205,-2.109 -4.087,-3.584 -5.645,-4.422 -1.559,-0.84 -3.37,-1.188 -5.429,-1.043 -0.289,0 -0.59,0.012 -0.9,0.035 -0.312,0.025 -0.636,0.061 -0.971,0.107 -0.624,0.049 -1.175,0.119 -1.653,0.217 -0.48,0.096 -0.936,0.166 -1.367,0.215 -0.145,0.049 -0.276,0.084 -0.395,0.107 -0.12,0.023 -0.276,0.037 -0.468,0.035 -0.528,0.145 -1.128,0.313 -1.798,0.504 -0.673,0.189 -1.511,0.408 -2.518,0.646 l -2.373,-2.518 12.44,-10.857 z"
   id="path133" />
	</g>
</g>




</svg>
