<?xml version="1.0" encoding="UTF-8" standalone="no"?>
<!-- Generator: Adobe Illustrator 15.0.2, SVG Export Plug-In . SVG Version: 6.00 Build 0)  -->

<svg
   version="1.1"
   id="Layer_1"
   x="0px"
   y="0px"
   width="100"
   height="100.00001"
   viewBox="-945 -210.002 100 100.00001"
   enable-background="new -945 -210.002 1045 730.002"
   xml:space="preserve"
   xmlns="http://www.w3.org/2000/svg"
   xmlns:svg="http://www.w3.org/2000/svg"><defs
   id="defs150" />
















































<g
   id="g26"
   transform="translate(-525,-210.00198)">
	<circle
   fill="#c1d7e9"
   cx="-370"
   cy="50"
   r="50"
   id="circle26" />
</g>
<path
   fill="#0d0f0f"
   d="m -877.512,-126.28298 c -4.787,4.871 -10.684,7.307 -17.688,7.307 -7.861,0 -14.098,-2.69 -18.711,-8.073 -4.359,-5.127 -6.537,-11.662 -6.537,-19.606 0,-8.543 3.717,-18.286 11.15,-29.224 6.064,-8.969 13.199,-16.83 21.402,-23.58 -1.197,5.469 -1.793,9.355 -1.793,11.662 0,5.299 1.664,10.467 4.996,15.508 4.102,5.98 7.219,10.426 9.357,13.328 3.332,5.043 4.998,9.955 4.998,14.737 0.002,7.093 -2.391,13.074 -7.174,17.941 z m -0.129,-27.362 c -1.281,-2.861 -2.777,-4.762 -4.486,-5.703 0.256,0.514 0.385,1.24 0.385,2.18 0,1.795 -0.512,4.357 -1.539,7.689 l -1.664,5.127 c 0,2.99 1.492,4.486 4.484,4.486 3.16,0 4.742,-2.095 4.742,-6.281 0,-2.134 -0.64,-4.632 -1.922,-7.498 z"
   id="path27" />


































































































</svg>
