<?xml version="1.0" encoding="UTF-8" standalone="no"?>
<!-- Generator: Adobe Illustrator 15.0.2, SVG Export Plug-In . SVG Version: 6.00 Build 0)  -->

<svg
   version="1.1"
   id="Layer_1"
   x="0px"
   y="0px"
   width="100"
   height="99.999023"
   viewBox="-945 -210.002 100 99.999021"
   enable-background="new -945 -210.002 1045 730.002"
   xml:space="preserve"
   xmlns="http://www.w3.org/2000/svg"
   xmlns:svg="http://www.w3.org/2000/svg"><defs
   id="defs150" />




























































<g
   id="g40"
   transform="translate(-210,-315.003)">
	<path
   fill="#bab1ab"
   d="m -649.651,119.637 c 9.052,9.051 14.651,21.551 14.651,35.36 0,27.616 -22.387,50.003 -50,50.003 -13.807,0 -26.305,-5.596 -35.354,-14.646"
   id="path39" />
	<path
   fill="#c1d7e9"
   d="M -720.354,190.354 C -729.403,181.307 -735,168.805 -735,154.998 c 0,-27.613 22.387,-49.997 50,-49.997 13.802,0 26.301,5.594 35.349,14.637"
   id="path40" />
</g>
<path
   fill="#0d0f0f"
   d="m -903.884,-161.847 c -2.692,2.736 -6.007,4.107 -9.946,4.107 -4.422,0 -7.929,-1.513 -10.524,-4.541 -2.452,-2.885 -3.677,-6.56 -3.677,-11.027 0,-4.805 2.09,-10.284 6.271,-16.436 3.411,-5.044 7.423,-9.465 12.037,-13.262 -0.673,3.077 -1.009,5.262 -1.009,6.559 0,2.98 0.935,5.889 2.811,8.723 2.306,3.363 4.061,5.863 5.262,7.496 1.874,2.836 2.812,5.6 2.812,8.287 0,3.993 -1.347,7.354 -4.037,10.094 z m -0.072,-15.386 c -0.721,-1.611 -1.561,-2.681 -2.523,-3.211 0.145,0.289 0.216,0.697 0.216,1.228 0,1.01 -0.287,2.45 -0.864,4.323 l -0.938,2.885 c 0,1.681 0.841,2.521 2.523,2.521 1.777,0 2.668,-1.178 2.668,-3.531 -10e-4,-1.202 -0.362,-2.607 -1.082,-4.215 z"
   id="path41" />
<path
   fill="#0d0f0f"
   d="m -855.38,-144.013 c 0,2.701 -0.982,4.544 -2.947,5.525 -0.574,0.287 -2.374,0.678 -5.404,1.166 -1.963,0.33 -2.946,1.086 -2.946,2.271 v 4.973 c 0,0.209 0.063,0.842 0.184,1.905 l 0.185,1.966 c 0,0.613 -0.144,1.617 -0.431,3.008 -0.777,0.163 -1.678,0.348 -2.701,0.555 -0.328,-1.23 -0.491,-2.069 -0.491,-2.52 0,-0.203 0.05,-0.512 0.153,-0.921 0.102,-0.407 0.154,-0.716 0.154,-0.922 0,-0.284 -0.253,-1.083 -0.762,-2.394 h -0.953 c -0.126,0.205 -0.167,0.472 -0.127,0.797 0.164,0.697 0.225,1.289 0.185,1.781 -0.697,0.491 -1.657,1.146 -2.885,1.965 -0.289,-0.082 -0.389,-0.123 -0.308,-0.123 v -4.359 c -0.081,-0.203 -0.285,-0.285 -0.614,-0.246 h -0.737 l -0.737,5.771 c -0.573,0.041 -1.268,0.041 -2.086,0 -0.287,-1.351 -0.799,-3.354 -1.535,-6.017 h -0.493 c -0.45,1.433 -0.695,2.211 -0.737,2.334 0,0.163 0.052,0.479 0.155,0.951 0.101,0.472 0.153,0.787 0.153,0.951 0,0.122 -0.042,0.43 -0.125,0.921 l -0.184,1.475 c -0.083,0.079 -0.183,0.12 -0.306,0.12 -1.228,0 -2.048,-0.307 -2.455,-0.919 -0.412,-0.615 -0.576,-1.475 -0.493,-2.58 l 0.493,-7.365 c 0,-0.123 0.039,-0.287 0.121,-0.492 0.082,-0.203 0.123,-0.348 0.123,-0.428 0,-0.328 -0.348,-0.984 -1.043,-1.968 -0.123,-0.04 -0.757,-0.185 -1.904,-0.431 -0.695,-0.162 -2.067,-0.449 -4.112,-0.857 -2.825,-0.531 -4.238,-2.803 -4.238,-6.814 0,-5.978 2.457,-10.949 7.367,-14.92 0.204,1.106 0.554,2.578 1.045,4.42 0.368,0.084 1.167,0.269 2.394,0.554 0.247,0.081 1.494,0.532 3.745,1.351 -1.145,-0.695 -2.64,-1.818 -4.48,-3.375 -0.697,-0.818 -1.046,-2.19 -1.046,-4.113 0,-0.452 0.778,-0.982 2.335,-1.6 1.391,-0.572 2.434,-0.896 3.131,-0.979 2.209,-0.286 3.908,-0.431 5.096,-0.431 5.115,0 9.25,1.311 12.401,3.932 -1.022,1.188 -2.783,2.453 -5.279,3.806 0.982,0.041 2.415,-0.347 4.298,-1.168 1.882,-0.815 2.68,-1.228 2.394,-1.228 0.327,0 0.983,0.656 1.965,1.965 0.735,0.982 1.329,1.863 1.78,2.64 1.31,2.333 2.19,4.853 2.641,7.552 0,0.942 0.02,1.617 0.061,2.025 z m -23.516,1.108 c 0,-1.761 -0.767,-3.429 -2.301,-5.006 -1.536,-1.576 -3.185,-2.363 -4.944,-2.363 -1.555,0 -2.925,0.66 -4.113,1.978 -1.187,1.319 -1.78,2.782 -1.78,4.39 0,1.4 0.675,2.309 2.026,2.719 0.86,0.248 2.066,0.392 3.621,0.434 h 3.377 c 2.743,0.035 4.114,-0.682 4.114,-2.152 z m 6.693,7.612 v -1.901 c -0.286,-0.533 -0.573,-1.088 -0.858,-1.66 -0.246,-0.817 -0.697,-1.963 -1.351,-3.439 l -0.676,7.184 c 0,0.576 -0.122,0.861 -0.369,0.861 -0.163,0 -0.287,-0.04 -0.368,-0.123 -0.287,-4.338 -0.429,-6.222 -0.429,-5.646 v -2.148 c -0.083,-0.126 -0.185,-0.188 -0.308,-0.188 -1.391,1.437 -2.086,3.748 -2.086,6.938 0,1.761 0.163,2.845 0.49,3.257 0.329,-0.082 0.695,-0.226 1.107,-0.431 0.163,-0.083 0.633,-0.123 1.411,-0.123 0.775,0 1.72,0.245 2.823,0.735 0.41,-0.003 0.614,-1.105 0.614,-3.316 z m 13.876,-8.556 c 0,-1.646 -0.614,-3.119 -1.842,-4.418 -1.228,-1.297 -2.64,-1.945 -4.234,-1.945 -1.72,0 -3.328,0.787 -4.821,2.361 -1.495,1.576 -2.242,3.224 -2.242,4.945 0,1.432 0.697,2.147 2.088,2.147 h 7.059 c 2.662,-0.04 3.992,-1.068 3.992,-3.09 z"
   id="path42" />





















































































</svg>
