<?xml version="1.0" encoding="UTF-8" standalone="no"?>
<!-- Generator: Adobe Illustrator 15.0.2, SVG Export Plug-In . SVG Version: 6.00 Build 0)  -->

<svg
   version="1.1"
   id="Layer_1"
   x="0px"
   y="0px"
   width="100"
   height="100"
   viewBox="-945 -210.002 100 99.999998"
   enable-background="new -945 -210.002 1045 730.002"
   xml:space="preserve"
   xmlns="http://www.w3.org/2000/svg"
   xmlns:svg="http://www.w3.org/2000/svg"><defs
   id="defs150" />










































































































<g
   id="g97"
   transform="translate(-105,-525.00001)">
	<circle
   fill="#0d0f0f"
   cx="-790"
   cy="364.99799"
   r="50"
   id="circle96" />
</g>
<path
   fill="#ffffff"
   d="m -866.055,-185.72301 -12.648,7.418 c 6.16,9.566 9.238,18.406 9.238,26.512 0,6.648 -1.969,11.977 -5.895,15.988 -3.938,4.018 -9.219,6.023 -15.871,6.023 -11.113,0 -23.719,-5.797 -37.824,-17.391 l 10.094,-9.977 c 9.656,8.76 18.73,13.135 27.246,13.135 3.078,0 5.207,-0.564 6.379,-1.699 1.18,-1.137 1.766,-3.244 1.766,-6.322 0,-6.162 -1.867,-11.596 -5.594,-16.295 l -8.996,12.643 v -34.531 z"
   id="path97" />








































</svg>
