<?xml version="1.0" encoding="UTF-8" standalone="no"?>
<!-- Generator: Adobe Illustrator 15.0.2, SVG Export Plug-In . SVG Version: 6.00 Build 0)  -->

<svg
   version="1.1"
   id="Layer_1"
   x="0px"
   y="0px"
   width="100"
   height="100"
   viewBox="-945 -210.002 100 99.999998"
   enable-background="new -945 -210.002 1045 730.002"
   xml:space="preserve"
   xmlns="http://www.w3.org/2000/svg"
   xmlns:svg="http://www.w3.org/2000/svg"><defs
   id="defs150" />
















































































































































<g
   id="g137"
   transform="translate(-525.00098,-525.141)">
	<g
   id="g136">
		<circle
   fill="#c9c4be"
   cx="-369.99899"
   cy="365.13901"
   r="50"
   id="circle135" />
	</g>
	<path
   fill="#0d0f0f"
   d="m -370.61,409.533 c -3.242,3.24 -8.498,3.24 -11.741,0 l -32.043,-32.043 c -3.239,-3.242 -3.239,-8.5 0,-11.742 l 45.007,-45.006 c 3.243,-3.24 8.5,-3.24 11.741,0 l 32.043,32.043 c 3.241,3.242 3.241,8.498 0,11.74 z"
   id="path136" />
	<path
   fill="#ffffff"
   d="m -335.734,373.012 h -36.005 l 13.183,-9.385 c -4.896,-3.887 -10.564,-5.828 -16.984,-5.828 -3.209,0 -5.412,0.611 -6.588,1.836 -1.186,1.227 -1.776,3.443 -1.776,6.654 0,8.873 4.562,18.34 13.688,28.396 l -10.389,10.523 c -12.09,-14.705 -18.129,-27.848 -18.129,-39.428 0,-6.926 2.084,-12.445 6.269,-16.545 4.181,-4.098 9.747,-6.146 16.667,-6.146 8.453,0 17.665,3.213 27.643,9.633 l 7.726,-13.18 z"
   id="path137" />
</g>



</svg>
