<?xml version="1.0" encoding="UTF-8" standalone="no"?>
<!-- Generator: Adobe Illustrator 15.0.2, SVG Export Plug-In . SVG Version: 6.00 Build 0)  -->

<svg
   version="1.1"
   id="Layer_1"
   x="0px"
   y="0px"
   width="100"
   height="99.999023"
   viewBox="-945 -210.002 100 99.999021"
   enable-background="new -945 -210.002 1045 730.002"
   xml:space="preserve"
   xmlns="http://www.w3.org/2000/svg"
   xmlns:svg="http://www.w3.org/2000/svg"><defs
   id="defs150" />































































<g
   id="g44"
   transform="translate(-315,-315.003)">
	<path
   fill="#e49977"
   d="m -544.651,119.637 c 9.052,9.051 14.651,21.551 14.651,35.36 0,27.616 -22.387,50.003 -50,50.003 -13.807,0 -26.305,-5.596 -35.354,-14.646"
   id="path43" />
	<path
   fill="#c1d7e9"
   d="M -615.354,190.354 C -624.403,181.307 -630,168.805 -630,154.998 c 0,-27.613 22.387,-49.997 50,-49.997 13.802,0 26.301,5.594 35.349,14.637"
   id="path44" />
</g>
<path
   fill="#0d0f0f"
   d="m -856.7,-135.564 c -1.718,4.1 -5.13,6.146 -10.24,6.146 -0.937,0 -1.952,0.115 -3.044,0.35 -1.639,0.353 -2.458,0.84 -2.458,1.465 0,0.195 0.136,0.418 0.41,0.674 0.272,0.253 0.508,0.381 0.703,0.381 -0.977,0 -0.314,0.029 1.987,0.085 2.303,0.06 3.747,0.089 4.333,0.089 -3.394,1.989 -9.07,2.906 -17.029,2.75 -2.614,-0.037 -4.857,-1.188 -6.729,-3.451 -1.835,-2.146 -2.751,-4.545 -2.751,-7.197 0,-2.81 0.946,-5.198 2.839,-7.17 1.89,-1.968 4.242,-2.953 7.051,-2.953 0.623,0 1.453,0.137 2.486,0.408 1.034,0.273 1.727,0.41 2.077,0.41 1.444,0 3.239,-0.597 5.385,-1.785 2.146,-1.189 3.16,-1.785 3.043,-1.785 -0.391,4.097 -1.756,6.849 -4.097,8.25 -1.678,0.978 -2.516,1.934 -2.516,2.867 0,0.586 0.35,1.055 1.052,1.406 0.546,0.271 1.151,0.408 1.815,0.408 1.014,0 2.008,-0.623 2.984,-1.872 0.974,-1.247 1.403,-2.379 1.286,-3.394 -0.116,-1.172 -0.037,-2.576 0.235,-4.213 0.077,-0.47 0.361,-1.045 0.848,-1.727 0.488,-0.684 0.928,-1.104 1.317,-1.262 0,0.354 -0.127,0.939 -0.38,1.756 -0.254,0.82 -0.38,1.427 -0.38,1.814 0,0.86 0.234,1.523 0.703,1.99 0.701,-0.271 1.324,-1.15 1.872,-2.634 0.468,-1.13 0.74,-2.224 0.82,-3.274 -1.64,-0.078 -3.211,-0.82 -4.711,-2.227 -1.501,-1.404 -2.252,-2.925 -2.252,-4.563 0,-0.271 0.037,-0.547 0.117,-0.819 0.232,0.353 0.583,0.899 1.053,1.64 0.662,0.975 1.17,1.463 1.521,1.463 0.468,0 0.702,-0.488 0.702,-1.463 0,-1.249 -0.332,-2.38 -0.995,-3.395 -0.743,-1.211 -1.699,-1.814 -2.867,-1.814 -0.548,0 -1.366,0.292 -2.458,0.878 -1.093,0.584 -2.088,0.878 -2.983,0.878 -0.273,0 -1.484,-0.353 -3.629,-1.054 3.783,-0.625 5.676,-1.19 5.676,-1.699 0,-1.325 -2.594,-2.223 -7.783,-2.688 -0.508,-0.039 -1.443,-0.117 -2.809,-0.235 0.155,-0.194 1.268,-0.407 3.336,-0.644 1.755,-0.192 2.983,-0.293 3.685,-0.293 9.285,0 15.175,4.506 17.673,13.521 0.431,-0.358 0.645,-0.95 0.645,-1.78 0,-1.068 -0.312,-2.412 -0.937,-4.033 -0.235,-0.635 -0.607,-1.584 -1.113,-2.849 3.198,4.075 4.8,7.938 4.8,11.583 0,1.922 -0.451,3.667 -1.348,5.232 -0.583,1.059 -1.678,2.41 -3.276,4.059 -1.6,1.645 -2.691,2.919 -3.277,3.821 2.146,-0.586 3.551,-1.035 4.214,-1.347 1.481,-0.664 2.828,-1.66 4.037,-2.985 0,0.51 -0.215,1.272 -0.643,2.281 z m -25.514,-22.996 c 0,0.701 -0.391,1.152 -1.17,1.348 l -1.521,0.232 c -0.547,0.272 -1.347,1.348 -2.398,3.219 -0.119,-0.584 -0.293,-1.403 -0.528,-2.457 -0.351,0.037 -0.935,0.352 -1.755,0.936 -0.351,0.273 -0.917,0.684 -1.699,1.229 0.235,-1.403 1.017,-2.826 2.342,-4.271 1.404,-1.598 2.77,-2.396 4.096,-2.396 1.755,-0.002 2.633,0.719 2.633,2.16 z m 10.182,5.385 c 0,0.662 -0.361,1.22 -1.083,1.668 -0.722,0.447 -1.434,0.673 -2.135,0.673 -0.938,0 -1.777,-0.524 -2.517,-1.581 -0.898,-1.285 -1.814,-2.125 -2.75,-2.516 0.194,-0.195 0.429,-0.293 0.704,-0.293 0.349,0 0.944,0.271 1.783,0.818 0.837,0.549 1.375,0.82 1.61,0.82 0.195,0 0.516,-0.271 0.964,-0.82 0.448,-0.547 0.946,-0.818 1.493,-0.818 1.288,0 1.931,0.684 1.931,2.049 z"
   id="path45" />
<path
   fill="#0d0f0f"
   d="m -903.884,-161.847 c -2.693,2.736 -6.007,4.107 -9.946,4.107 -4.422,0 -7.929,-1.513 -10.524,-4.541 -2.452,-2.885 -3.677,-6.56 -3.677,-11.027 0,-4.805 2.09,-10.284 6.272,-16.436 3.411,-5.044 7.423,-9.465 12.037,-13.262 -0.673,3.077 -1.009,5.262 -1.009,6.559 0,2.98 0.935,5.889 2.811,8.723 2.306,3.363 4.061,5.863 5.262,7.496 1.874,2.836 2.812,5.6 2.812,8.287 -10e-4,3.993 -1.348,7.354 -4.038,10.094 z m -0.072,-15.386 c -0.721,-1.611 -1.561,-2.681 -2.523,-3.211 0.145,0.289 0.216,0.697 0.216,1.228 0,1.01 -0.287,2.45 -0.864,4.323 l -0.938,2.885 c 0,1.681 0.841,2.521 2.523,2.521 1.777,0 2.668,-1.178 2.668,-3.531 -10e-4,-1.202 -0.362,-2.607 -1.082,-4.215 z"
   id="path46" />


















































































</svg>
