<?xml version="1.0" encoding="UTF-8" standalone="no"?>
<!-- Generator: Adobe Illustrator 15.0.2, SVG Export Plug-In . SVG Version: 6.00 Build 0)  -->

<svg
   version="1.1"
   id="Layer_1"
   x="0px"
   y="0px"
   width="100"
   height="99.999023"
   viewBox="-945 -210.002 100 99.999021"
   enable-background="new -945 -210.002 1045 730.002"
   xml:space="preserve"
   xmlns="http://www.w3.org/2000/svg"
   xmlns:svg="http://www.w3.org/2000/svg"><defs
   id="defs150" />

























































<g
   id="g36"
   transform="translate(-105,-315.003)">
	<path
   fill="#bab1ab"
   d="m -754.651,119.637 c 9.052,9.051 14.651,21.551 14.651,35.36 0,27.616 -22.386,50.003 -50.001,50.003 -13.806,0 -26.305,-5.596 -35.354,-14.646"
   id="path35" />
	<path
   fill="#f8f6d8"
   d="M -825.354,190.354 C -834.403,181.307 -840,168.805 -840,154.998 c 0,-27.613 22.386,-49.997 49.999,-49.997 13.804,0 26.302,5.594 35.35,14.637"
   id="path36" />
</g>
<path
   fill="#0d0f0f"
   d="m -855.38,-144.013 c 0,2.701 -0.982,4.544 -2.947,5.525 -0.574,0.287 -2.374,0.678 -5.404,1.166 -1.963,0.33 -2.946,1.086 -2.946,2.271 v 4.973 c 0,0.209 0.063,0.842 0.185,1.905 l 0.185,1.966 c 0,0.613 -0.144,1.617 -0.431,3.008 -0.777,0.163 -1.678,0.348 -2.701,0.555 -0.328,-1.23 -0.491,-2.069 -0.491,-2.52 0,-0.203 0.05,-0.512 0.153,-0.921 0.102,-0.407 0.154,-0.716 0.154,-0.922 0,-0.284 -0.253,-1.083 -0.762,-2.394 h -0.953 c -0.126,0.205 -0.167,0.472 -0.127,0.797 0.164,0.697 0.225,1.289 0.186,1.781 -0.697,0.491 -1.657,1.146 -2.885,1.965 -0.289,-0.082 -0.389,-0.123 -0.308,-0.123 v -4.359 c -0.081,-0.203 -0.285,-0.285 -0.614,-0.246 h -0.737 l -0.737,5.771 c -0.573,0.041 -1.268,0.041 -2.086,0 -0.287,-1.351 -0.799,-3.354 -1.535,-6.017 h -0.493 c -0.45,1.433 -0.695,2.211 -0.737,2.334 0,0.163 0.052,0.479 0.155,0.951 0.102,0.472 0.153,0.787 0.153,0.951 0,0.122 -0.042,0.43 -0.125,0.921 l -0.184,1.475 c -0.083,0.079 -0.183,0.12 -0.306,0.12 -1.228,0 -2.048,-0.307 -2.455,-0.919 -0.412,-0.615 -0.576,-1.475 -0.493,-2.58 l 0.493,-7.365 c 0,-0.123 0.039,-0.287 0.121,-0.492 0.082,-0.203 0.123,-0.348 0.123,-0.428 0,-0.328 -0.348,-0.984 -1.043,-1.968 -0.123,-0.04 -0.757,-0.185 -1.904,-0.431 -0.695,-0.162 -2.066,-0.449 -4.112,-0.857 -2.825,-0.531 -4.238,-2.803 -4.238,-6.814 0,-5.978 2.457,-10.949 7.367,-14.92 0.204,1.106 0.554,2.578 1.045,4.42 0.368,0.084 1.167,0.269 2.394,0.554 0.247,0.081 1.494,0.532 3.745,1.351 -1.145,-0.695 -2.64,-1.818 -4.48,-3.375 -0.697,-0.818 -1.046,-2.19 -1.046,-4.113 0,-0.452 0.778,-0.982 2.335,-1.6 1.391,-0.572 2.434,-0.896 3.131,-0.979 2.209,-0.286 3.908,-0.431 5.096,-0.431 5.115,0 9.25,1.311 12.401,3.932 -1.022,1.188 -2.783,2.453 -5.279,3.806 0.982,0.041 2.415,-0.347 4.298,-1.168 1.882,-0.815 2.68,-1.228 2.394,-1.228 0.327,0 0.983,0.656 1.965,1.965 0.734,0.982 1.329,1.863 1.78,2.64 1.31,2.333 2.19,4.853 2.641,7.552 0,0.942 0.02,1.617 0.061,2.025 z m -23.516,1.108 c 0,-1.761 -0.767,-3.429 -2.301,-5.006 -1.536,-1.576 -3.186,-2.363 -4.944,-2.363 -1.555,0 -2.925,0.66 -4.113,1.978 -1.187,1.319 -1.78,2.782 -1.78,4.39 0,1.4 0.675,2.309 2.026,2.719 0.86,0.248 2.066,0.392 3.621,0.434 h 3.377 c 2.743,0.035 4.114,-0.682 4.114,-2.152 z m 6.693,7.612 v -1.901 c -0.286,-0.533 -0.573,-1.088 -0.858,-1.66 -0.246,-0.817 -0.697,-1.963 -1.351,-3.439 l -0.676,7.184 c 0,0.576 -0.122,0.861 -0.369,0.861 -0.163,0 -0.287,-0.04 -0.368,-0.123 -0.287,-4.338 -0.429,-6.222 -0.429,-5.646 v -2.148 c -0.083,-0.126 -0.185,-0.188 -0.308,-0.188 -1.391,1.437 -2.086,3.748 -2.086,6.938 0,1.761 0.163,2.845 0.49,3.257 0.329,-0.082 0.695,-0.226 1.106,-0.431 0.163,-0.083 0.633,-0.123 1.411,-0.123 0.775,0 1.72,0.245 2.823,0.735 0.411,-0.003 0.615,-1.105 0.615,-3.316 z m 13.876,-8.556 c 0,-1.646 -0.614,-3.119 -1.842,-4.418 -1.228,-1.297 -2.64,-1.945 -4.234,-1.945 -1.72,0 -3.328,0.787 -4.821,2.361 -1.495,1.576 -2.242,3.224 -2.242,4.945 0,1.432 0.697,2.147 2.088,2.147 h 7.059 c 2.662,-0.04 3.992,-1.068 3.992,-3.09 z"
   id="path37" />
<path
   fill="#0d0f0f"
   d="m -890.333,-171.739 c -2.436,-2.264 -4.054,-3.492 -4.848,-3.682 -0.577,-0.139 -1.135,0.197 -1.672,1.005 -0.537,0.808 -1.292,1.095 -2.268,0.858 -0.397,-0.094 -1.175,-0.432 -2.333,-1.016 -0.938,0.885 -1.441,1.471 -1.511,1.758 -0.095,0.397 0.089,0.938 0.55,1.623 0.46,0.683 0.894,1.07 1.301,1.168 0.257,0.063 0.622,0.092 1.09,0.09 0.468,0 0.777,0.015 0.926,0.051 0.444,0.105 0.469,0.971 0.079,2.597 -0.37,1.552 -1.302,3.853 -2.794,6.892 -0.058,-3.908 -0.609,-5.988 -1.655,-6.238 -0.145,-0.035 -0.469,0.003 -0.972,0.111 -0.505,0.106 -0.864,0.138 -1.08,0.086 -1.048,-0.25 -1.758,-1.434 -2.131,-3.547 -1.722,-0.145 -2.757,0.506 -3.103,1.949 -0.173,0.725 0.024,1.383 0.589,1.975 0.564,0.594 0.824,0.981 0.783,1.16 -0.232,0.978 -2.021,2.133 -5.355,3.474 -1.777,0.723 -3.007,1.229 -3.688,1.524 0.659,-0.529 1.369,-1.258 2.126,-2.185 0.862,-1.054 1.372,-1.905 1.528,-2.558 0.086,-0.357 -0.208,-0.965 -0.883,-1.813 -0.676,-0.851 -0.926,-1.634 -0.753,-2.354 0.146,-0.616 0.543,-1.321 1.193,-2.123 -0.34,-0.653 -0.834,-1.059 -1.484,-1.213 -1.444,-0.348 -2.279,-0.051 -2.504,0.89 0.156,-0.649 0.039,-0.162 -0.349,1.464 -0.25,1.198 -1.296,1.578 -3.138,1.139 -1.409,-0.336 -3.696,-1.228 -6.864,-2.672 3.982,-0.041 6.119,-0.675 6.412,-1.904 -0.033,0.146 -0.003,-0.307 0.096,-1.353 0.123,-1.151 1.16,-1.976 3.108,-2.464 0.073,-1.736 -0.593,-2.775 -2.003,-3.111 -0.216,-0.055 -0.706,0.229 -1.463,0.85 -0.76,0.621 -1.393,0.871 -1.898,0.75 -0.867,-0.207 -1.762,-1.414 -2.684,-3.621 -0.426,-1.096 -1.087,-2.723 -1.982,-4.885 0.727,0.631 1.453,1.266 2.181,1.896 0.963,0.766 1.77,1.225 2.419,1.382 0.506,0.12 1.108,-0.202 1.808,-0.973 0.698,-0.767 1.446,-1.056 2.24,-0.866 0.111,0.025 0.78,0.414 2.012,1.169 0.937,-0.882 1.466,-1.577 1.588,-2.084 0.102,-0.432 -0.04,-0.991 -0.431,-1.678 -0.389,-0.685 -0.802,-1.078 -1.235,-1.185 -0.181,-0.043 -0.472,-0.057 -0.877,-0.037 -0.406,0.018 -0.699,0.006 -0.879,-0.039 -0.65,-0.155 -0.781,-1.045 -0.392,-2.67 0.102,-0.436 1.111,-2.809 3.022,-7.125 -0.166,0.531 -0.173,1.601 -0.021,3.205 0.181,1.953 0.687,3.024 1.518,3.226 0.144,0.034 0.459,-0.005 0.945,-0.119 0.485,-0.112 0.853,-0.14 1.105,-0.078 0.83,0.2 1.404,0.833 1.722,1.901 l 0.463,1.656 c 0.757,0.182 1.455,0.063 2.089,-0.357 0.636,-0.421 1.046,-1.012 1.227,-1.77 0.189,-0.793 0,-1.479 -0.568,-2.056 -0.57,-0.575 -0.829,-0.971 -0.775,-1.188 0.181,-0.758 1.68,-1.754 4.495,-2.987 2.26,-0.987 3.709,-1.539 4.349,-1.653 -2.054,1.725 -3.199,3.07 -3.431,4.047 -0.121,0.506 0.055,1.123 0.531,1.848 0.595,0.867 0.912,1.459 0.95,1.771 0.162,0.92 -0.146,2.049 -0.924,3.389 0.811,0.92 1.469,1.439 1.977,1.562 1.044,0.25 1.699,-0.167 1.958,-1.25 0.027,-0.108 0.063,-0.462 0.112,-1.06 0.046,-0.602 0.098,-0.933 0.151,-0.998 0.267,-0.471 1.32,-0.484 3.162,-0.045 1.156,0.277 3.479,1.176 6.972,2.699 -0.846,0.026 -2.116,0.065 -3.809,0.12 -1.549,0.087 -2.388,0.403 -2.519,0.945 -0.059,0.252 -0.074,0.707 -0.04,1.364 0.034,0.656 0.016,1.131 -0.053,1.418 -0.12,0.507 -0.558,0.896 -1.311,1.176 l -2.156,0.859 c 0.246,0.899 0.42,1.438 0.531,1.615 0.259,0.521 0.693,0.855 1.307,1.002 0.434,0.104 0.922,-0.181 1.465,-0.854 0.542,-0.672 1.212,-0.911 2.006,-0.723 0.975,0.233 1.861,1.399 2.658,3.5 0.441,1.176 1.139,2.965 2.092,5.37 z m -11.275,-6.02 c 0.552,-2.311 0.183,-4.521 -1.108,-6.624 -1.292,-2.104 -3.094,-3.433 -5.404,-3.983 -2.349,-0.564 -4.573,-0.209 -6.671,1.066 -2.098,1.271 -3.448,3.078 -4.045,5.417 -0.59,2.303 -0.21,4.505 1.141,6.604 1.35,2.096 3.18,3.424 5.493,3.977 2.455,0.586 4.698,0.273 6.725,-0.939 2.025,-1.215 3.315,-3.056 3.869,-5.518 z m -0.814,-0.195 c -0.527,2.203 -1.703,3.852 -3.53,4.939 -1.826,1.092 -3.843,1.373 -6.044,0.846 -2.131,-0.51 -3.777,-1.688 -4.94,-3.531 -1.163,-1.843 -1.489,-3.828 -0.979,-5.962 0.503,-2.095 1.698,-3.708 3.592,-4.841 1.896,-1.129 3.889,-1.443 5.983,-0.943 2.094,0.5 3.728,1.693 4.899,3.577 1.171,1.886 1.512,3.854 1.019,5.915 z"
   id="path38" />
























































































</svg>
