<?xml version="1.0" encoding="UTF-8" standalone="no"?>
<!-- Generator: Adobe Illustrator 15.0.2, SVG Export Plug-In . SVG Version: 6.00 Build 0)  -->

<svg
   version="1.1"
   id="Layer_1"
   x="0px"
   y="0px"
   width="100"
   height="100"
   viewBox="-945 -210.002 100 99.999998"
   enable-background="new -945 -210.002 1045 730.002"
   xml:space="preserve"
   xmlns="http://www.w3.org/2000/svg"
   xmlns:svg="http://www.w3.org/2000/svg"><defs
   id="defs150" />














































































































































<g
   id="g132"
   transform="translate(-630,-525.07002)">
	<circle
   fill="#f7f4d8"
   cx="-265"
   cy="365.06799"
   r="50"
   id="circle130" />
	<path
   fill="#0d0f0f"
   d="m -280.436,392.881 c 1.674,-1.963 6.073,-1.816 6.656,2.139 0.354,2.41 1,10.109 1.808,13.346 0.427,1.713 1.257,3.156 2.339,3.227 1.922,0.123 6.614,-3.75 7.614,-5.566 1.773,-3.229 3.058,-6.877 4.27,-10.785 0.475,-1.523 2.1,-1.598 2.994,-0.123 1.665,2.754 4.891,7.43 7.625,10.795 0.722,0.887 1.591,0.787 1.793,-0.629 0.731,-5.123 1.84,-11.178 3.859,-16.652 0.668,-1.809 2.553,-2.012 4.031,-1.111 0.836,0.508 3.529,1.854 4.547,2.168 1.747,0.541 3.232,0.658 5.476,-1.01 1.722,-1.283 1.854,-2.533 0.954,-3.906 -1.847,-2.82 -4.365,-4.994 -6.375,-7.91 -1.108,-1.605 -0.998,-2.752 0.407,-3.584 3.611,-2.139 6.763,-4.584 9.646,-6.955 1.06,-0.871 1.827,-2.168 2.07,-4.379 0.351,-3.174 0.56,-4.756 -0.833,-5.148 -1.367,-0.391 -2.198,0.59 -7.983,2.088 -1.374,0.354 -2.971,0.57 -3.511,-0.168 -0.554,-0.758 -0.187,-2.205 0.998,-3.512 1.775,-1.957 4.089,-4.277 5.896,-6.984 0.866,-1.297 1.938,-3.41 1.088,-4.678 -0.929,-1.385 -3.298,-0.619 -4.414,-0.127 -1.554,0.684 -4.609,1.338 -6.469,1.607 -2.421,0.352 -4.232,0.258 -4.971,-0.518 -0.658,-0.691 -0.862,-2.344 -0.148,-4.158 1.054,-2.68 2.957,-5.137 4.527,-6.449 1.396,-1.166 1.275,-1.848 0.204,-2.754 -0.858,-0.725 -3.479,-1.217 -5.473,-0.613 -2.937,0.891 -5.728,2.352 -8.333,4.311 -1.47,1.104 -3.445,1.654 -5.008,1.385 -1.283,-0.221 -2.67,-1.268 -3.031,-3.363 -0.801,-4.66 -1.85,-9.357 -3.03,-11.992 -0.721,-1.607 -1.27,-2.191 -2.254,-2.182 -0.961,0.012 -1.571,0.777 -2.403,2.365 -1.322,2.527 -2.68,7.619 -3.695,11.809 -0.592,2.439 -1.679,3.404 -3.604,4.564 -1.072,0.646 -2.088,0.223 -2.643,-1.146 -0.553,-1.361 -2.465,-5.932 -3.086,-7.799 -0.407,-1.219 -0.906,-1.293 -1.701,-0.129 -1.811,2.654 -4.822,7.707 -6.135,10.479 -0.775,1.637 -0.941,3.164 0.073,4.195 1.356,1.377 1.884,2.063 1.109,2.863 -0.536,0.555 -2.913,0.186 -5.519,-0.406 -1.726,-0.391 -4.664,-0.85 -7.344,0 -2.212,0.703 -3.629,1.834 -3.844,3.277 -0.172,1.158 2.106,4.43 3.443,5.557 0.989,0.834 1.446,1.512 1.547,2.236 0.203,1.479 0,3.383 -0.832,4.619 -0.438,0.65 -1.83,0.666 -4.62,0.832 -6.253,0.373 -8.985,1.563 -9.296,6.006 -0.223,3.189 2.099,5.09 5.618,4.25 1.565,-0.373 2.976,-0.518 4.731,-0.148 1.719,0.363 4.822,1.275 4.842,2.939 0.022,2.068 -3.217,2.551 -6.344,3.713 -1.248,0.463 -0.92,1.666 0.135,1.85 1.035,0.182 12.755,3.258 14.945,5.949 1.213,1.49 -0.172,4.783 -0.976,6.691 -0.788,1.873 -0.388,7.355 0.333,7.539 0.752,0.193 2.458,-1.533 3.63,-2.762 1.496,-1.565 3.126,-3.348 4.667,-5.153 z"
   id="path131" />
	<path
   fill="none"
   stroke="#f7f4d8"
   stroke-width="2.5"
   stroke-miterlimit="10"
   d="m -245.112,365.068 c 0,10.982 -8.903,19.885 -19.884,19.885 -10.988,0 -19.891,-8.9 -19.891,-19.885 0,-10.98 8.902,-19.883 19.891,-19.883 10.98,10e-4 19.884,8.903 19.884,19.883 z"
   id="path132" />
</g>





</svg>
