<?xml version="1.0" encoding="UTF-8" standalone="no"?>
<!-- Generator: Adobe Illustrator 15.0.2, SVG Export Plug-In . SVG Version: 6.00 Build 0)  -->

<svg
   version="1.1"
   id="Layer_1"
   x="0px"
   y="0px"
   width="100"
   height="99.999023"
   viewBox="-945 -210.002 100 99.999021"
   enable-background="new -945 -210.002 1045 730.002"
   xml:space="preserve"
   xmlns="http://www.w3.org/2000/svg"
   xmlns:svg="http://www.w3.org/2000/svg"><defs
   id="defs150" />






















































<g
   id="g32"
   transform="translate(0,-315.003)">
	<path
   fill="#c1d7e9"
   d="m -859.651,119.637 c 9.052,9.051 14.651,21.551 14.651,35.36 0,27.616 -22.387,50.003 -50.001,50.003 -13.806,0 -26.305,-5.596 -35.354,-14.646"
   id="path31" />
	<path
   fill="#f8f6d8"
   d="M -930.354,190.354 C -939.403,181.307 -945,168.805 -945,154.998 c 0,-27.613 22.386,-49.997 49.999,-49.997 13.804,0 26.302,5.594 35.35,14.637"
   id="path32" />
</g>
<path
   fill="#0d0f0f"
   d="m -868.278,-126.328 c -2.693,2.739 -6.007,4.109 -9.946,4.109 -4.423,0 -7.93,-1.515 -10.525,-4.541 -2.452,-2.884 -3.676,-6.558 -3.676,-11.028 0,-4.804 2.09,-10.281 6.271,-16.434 3.41,-5.047 7.423,-9.467 12.037,-13.264 -0.672,3.076 -1.009,5.262 -1.009,6.561 0,2.98 0.935,5.886 2.812,8.721 2.305,3.365 4.06,5.864 5.261,7.496 1.874,2.835 2.813,5.6 2.813,8.289 -10e-4,3.99 -1.348,7.354 -4.038,10.091 z m -0.071,-15.388 c -0.722,-1.609 -1.563,-2.68 -2.524,-3.208 0.145,0.288 0.216,0.698 0.216,1.226 0,1.01 -0.287,2.453 -0.864,4.324 l -0.938,2.885 c 0,1.68 0.84,2.522 2.524,2.522 1.776,0 2.667,-1.177 2.667,-3.532 -10e-4,-1.201 -0.361,-2.608 -1.081,-4.217 z"
   id="path33" />
<path
   fill="#0d0f0f"
   d="m -890.333,-171.739 c -2.436,-2.264 -4.054,-3.492 -4.848,-3.682 -0.577,-0.139 -1.135,0.197 -1.672,1.005 -0.537,0.808 -1.292,1.095 -2.268,0.858 -0.397,-0.094 -1.175,-0.434 -2.333,-1.016 -0.938,0.885 -1.441,1.471 -1.511,1.758 -0.095,0.397 0.089,0.938 0.55,1.621 0.46,0.685 0.894,1.072 1.301,1.17 0.257,0.063 0.622,0.092 1.09,0.09 0.468,-0.002 0.777,0.015 0.926,0.051 0.444,0.104 0.469,0.971 0.079,2.597 -0.37,1.552 -1.302,3.853 -2.794,6.892 -0.058,-3.908 -0.609,-5.988 -1.655,-6.238 -0.145,-0.035 -0.469,0.003 -0.972,0.111 -0.505,0.106 -0.864,0.138 -1.08,0.086 -1.048,-0.252 -1.758,-1.434 -2.131,-3.547 -1.722,-0.145 -2.757,0.506 -3.103,1.949 -0.173,0.725 0.024,1.383 0.589,1.975 0.564,0.594 0.824,0.98 0.783,1.16 -0.232,0.978 -2.021,2.133 -5.355,3.474 -1.777,0.721 -3.007,1.228 -3.688,1.522 0.659,-0.527 1.369,-1.257 2.126,-2.183 0.862,-1.056 1.372,-1.905 1.528,-2.558 0.086,-0.359 -0.208,-0.967 -0.883,-1.815 -0.676,-0.849 -0.926,-1.633 -0.753,-2.354 0.146,-0.614 0.543,-1.319 1.193,-2.121 -0.34,-0.653 -0.834,-1.06 -1.484,-1.215 -1.444,-0.346 -2.279,-0.049 -2.504,0.892 0.156,-0.649 0.039,-0.162 -0.349,1.462 -0.25,1.2 -1.296,1.58 -3.138,1.141 -1.409,-0.339 -3.696,-1.229 -6.864,-2.673 3.982,-0.04 6.119,-0.675 6.412,-1.903 -0.033,0.146 -0.003,-0.307 0.096,-1.353 0.123,-1.153 1.16,-1.976 3.108,-2.464 0.073,-1.738 -0.593,-2.775 -2.003,-3.114 -0.216,-0.052 -0.706,0.232 -1.463,0.853 -0.76,0.621 -1.393,0.871 -1.898,0.748 -0.867,-0.205 -1.762,-1.412 -2.684,-3.619 -0.426,-1.096 -1.087,-2.723 -1.982,-4.885 0.727,0.631 1.453,1.266 2.181,1.896 0.963,0.766 1.77,1.225 2.419,1.382 0.506,0.12 1.108,-0.204 1.808,-0.973 0.698,-0.769 1.446,-1.058 2.24,-0.866 0.111,0.025 0.78,0.414 2.012,1.169 0.937,-0.884 1.466,-1.577 1.588,-2.084 0.102,-0.435 -0.04,-0.991 -0.431,-1.678 -0.389,-0.685 -0.802,-1.078 -1.235,-1.185 -0.181,-0.043 -0.472,-0.057 -0.877,-0.037 -0.406,0.018 -0.699,0.004 -0.879,-0.039 -0.65,-0.155 -0.781,-1.045 -0.392,-2.672 0.102,-0.434 1.111,-2.808 3.022,-7.123 -0.166,0.531 -0.173,1.601 -0.021,3.203 0.181,1.953 0.687,3.026 1.518,3.228 0.144,0.034 0.459,-0.005 0.945,-0.119 0.485,-0.112 0.853,-0.14 1.105,-0.078 0.83,0.198 1.404,0.833 1.722,1.901 l 0.463,1.656 c 0.757,0.182 1.455,0.063 2.089,-0.358 0.636,-0.42 1.046,-1.011 1.227,-1.769 0.189,-0.795 0,-1.479 -0.568,-2.056 -0.57,-0.575 -0.829,-0.971 -0.775,-1.188 0.181,-0.758 1.68,-1.754 4.495,-2.989 2.26,-0.985 3.709,-1.537 4.349,-1.651 -2.054,1.725 -3.199,3.07 -3.431,4.047 -0.121,0.506 0.055,1.123 0.531,1.848 0.595,0.867 0.912,1.459 0.95,1.771 0.162,0.92 -0.146,2.047 -0.924,3.389 0.811,0.92 1.469,1.439 1.977,1.562 1.044,0.25 1.699,-0.167 1.958,-1.25 0.027,-0.108 0.063,-0.462 0.112,-1.062 0.046,-0.6 0.098,-0.931 0.151,-0.996 0.267,-0.471 1.32,-0.486 3.162,-0.045 1.156,0.277 3.479,1.176 6.972,2.699 -0.846,0.026 -2.116,0.065 -3.809,0.12 -1.549,0.087 -2.388,0.402 -2.519,0.943 -0.059,0.254 -0.074,0.708 -0.04,1.364 0.034,0.656 0.016,1.133 -0.053,1.42 -0.12,0.507 -0.558,0.896 -1.311,1.176 l -2.156,0.859 c 0.246,0.897 0.42,1.438 0.531,1.615 0.259,0.52 0.693,0.854 1.307,1.002 0.434,0.104 0.922,-0.181 1.465,-0.854 0.542,-0.672 1.212,-0.912 2.006,-0.723 0.975,0.232 1.861,1.398 2.658,3.5 0.441,1.174 1.139,2.965 2.092,5.37 z m -11.275,-6.021 c 0.552,-2.312 0.183,-4.521 -1.108,-6.623 -1.292,-2.104 -3.094,-3.433 -5.404,-3.986 -2.349,-0.562 -4.573,-0.206 -6.671,1.069 -2.098,1.271 -3.448,3.078 -4.045,5.417 -0.59,2.303 -0.21,4.505 1.141,6.603 1.35,2.1 3.18,3.426 5.493,3.979 2.455,0.587 4.698,0.275 6.725,-0.941 2.025,-1.214 3.315,-3.055 3.869,-5.518 z m -0.814,-0.194 c -0.527,2.203 -1.703,3.852 -3.53,4.939 -1.826,1.09 -3.843,1.373 -6.044,0.846 -2.131,-0.51 -3.777,-1.688 -4.94,-3.531 -1.163,-1.843 -1.489,-3.828 -0.979,-5.962 0.503,-2.095 1.698,-3.708 3.592,-4.841 1.896,-1.129 3.889,-1.445 5.983,-0.943 2.094,0.5 3.728,1.693 4.899,3.577 1.171,1.886 1.512,3.854 1.019,5.915 z"
   id="path34" />



























































































</svg>
