<?xml version="1.0" encoding="UTF-8" standalone="no"?>
<!-- Generator: Adobe Illustrator 15.0.2, SVG Export Plug-In . SVG Version: 6.00 Build 0)  -->

<svg
   version="1.1"
   id="Layer_1"
   x="0px"
   y="0px"
   width="100"
   height="100.00001"
   viewBox="-945 -210.002 100 100.00001"
   enable-background="new -945 -210.002 1045 730.002"
   xml:space="preserve"
   xmlns="http://www.w3.org/2000/svg"
   xmlns:svg="http://www.w3.org/2000/svg"><defs
   id="defs150" />


















































































































































<g
   id="g143"
   transform="translate(-315,-210.00198)">
	<g
   id="g141">
		<path
   fill="#c9c4be"
   d="M -530,49.998 C -530,77.613 -552.384,100 -580,100 -607.613,100 -630,77.613 -630,49.998 -630,22.385 -607.613,0 -580,0 c 27.616,0 50,22.385 50,49.998 z"
   id="path140" />
	</g>
	<g
   id="g142">
		<path
   fill="#0d0f0f"
   d="m -555.645,79.999 h -53.76 v -2.711 l 42.635,-57.22 h -18.979 c -3.118,0.063 -5.517,0.391 -7.2,0.981 -1.683,0.594 -3.242,1.73 -4.675,3.413 -0.125,0.126 -0.233,0.25 -0.327,0.374 -0.093,0.126 -0.203,0.25 -0.327,0.373 -0.25,0.375 -0.483,0.702 -0.702,0.982 -0.219,0.28 -0.42,0.577 -0.607,0.889 -0.063,0.188 -0.156,0.374 -0.28,0.561 -0.125,0.188 -0.25,0.375 -0.374,0.562 -0.126,0.374 -0.281,0.765 -0.467,1.168 -0.188,0.406 -0.407,0.889 -0.654,1.449 l -3.367,-0.094 V 16.235 h 51.049 v 2.524 l -43.007,57.406 h 18.605 c 2.805,0.063 5.033,0 6.685,-0.188 1.65,-0.187 3.193,-0.59 4.628,-1.213 0.187,-0.063 0.358,-0.125 0.514,-0.188 0.156,-0.063 0.295,-0.124 0.421,-0.188 0.873,-0.436 1.714,-0.935 2.524,-1.496 0.809,-0.561 1.62,-1.215 2.431,-1.963 0.561,-0.562 1.122,-1.168 1.683,-1.822 0.561,-0.655 1.153,-1.388 1.777,-2.197 l 2.431,-3.461 h 3.552 z"
   id="path141" />
	</g>
</g>

</svg>
